<svg xmlns="http://www.w3.org/2000/svg" data-name="Layer 1" viewBox="0 0 202 178">
  <title>
    L-logo-white
  </title>
  <path fill="#fff" d="M37.48165 139.47275c-21.3276 0-37.2817-12.7656-37.2817-33.3154V1.17885h25.3765V106.002c0 9.4961 5.2876 10.3653 11.8559 10.3653zm42.56735.4278c-23.665 0-35.1845-8.8711-35.1845-29.1113v-56.356h24.2856v58.0679c0 6.0713 3.269 11.0537 11.521 11.0537 4.3584 0 7.4707-.624 10.1182-2.0215v-67.1001h24.2851v78.9282c-7.78215 3.89255-19.30265 6.5391-35.0254 6.5391zM122.30295 30.695c0-21.0185 14.4756-32.0723 37.2051-29.581v15.4121c-8.0947-.312-12.9209 2.4917-12.9209 12.1421v10.5849h6.1455v15.7266h-6.1455v84.6709h-24.2842V30.695zm42.2891 0c0-21.0185 14.4775-32.0723 37.208-29.581v15.4121c-8.0967-.312-12.9228 2.4917-12.9228 12.1421v10.5849h6.1455v15.7266h-6.1455v84.6709h-24.2852V30.695zM25.81085 176.86045l-1.5655-5.4795h-7.7168l-1.6401 5.4795h-5.4053l8.3501-25.6464h5.8901l8.3125 25.6464h-6.225zm-4.6597-17.2968a19.4727 19.4727 0 0 1-.5967-3.0938h-.0742a21.78313 21.78313 0 0 1-.6709 3.0938l-2.3858 8.3506h6.0015zm18.895 17.6689c-3.1689 0-5.2563-.5586-6.71-1.5273l1.3789-4.2129a7.6866 7.6866 0 0 0 4.1382 1.1933c2.1245 0 3.4292-1.2304 3.4292-3.0566 0-1.6406-.9692-2.6465-3.5786-3.8027-3.9888-1.7891-5.1069-4.585-5.1069-7.0821a7.73518 7.73518 0 0 1 8.1264-7.9033 10.90836 10.90836 0 0 1 6.0015 1.4912l-1.2671 3.6904a7.43273 7.43273 0 0 0-3.8398-1.1181 2.75 2.75 0 0 0-3.0938 2.9453c0 1.8633 1.3047 2.7949 3.4668 3.7637 4.9575 2.2373 5.666 4.959 5.666 7.5683.00005 4.6221-3.5415 8.0508-8.6108 8.0508zm18.0381 0c-3.169 0-5.2564-.5586-6.71-1.5273l1.3789-4.2129a7.68632 7.68632 0 0 0 4.1382 1.1933c2.1245 0 3.4292-1.2304 3.4292-3.0566 0-1.6406-.9692-2.6465-3.5786-3.8027-3.9888-1.7891-5.1069-4.585-5.1069-7.0821a7.73518 7.73518 0 0 1 8.1264-7.9033 10.90836 10.90836 0 0 1 6.0015 1.4912l-1.2671 3.6904a7.43273 7.43273 0 0 0-3.8398-1.1181 2.75 2.75 0 0 0-3.0938 2.9453c0 1.8633 1.3047 2.7949 3.4668 3.7637 4.9575 2.2373 5.666 4.959 5.666 7.5683 0 4.6221-3.5415 8.0508-8.6108 8.0508zm21.8408 0c-7.1572 0-10.0278-5.9258-10.0278-13.1953 0-7.2324 2.8706-13.1963 10.0278-13.1963s10.0274 5.9639 10.0274 13.1963c0 7.2695-2.8702 13.1953-10.0274 13.1953zm0-22.4023c-3.2432 0-3.8769 4.6211-3.8769 8.9834 0 4.3984.5966 8.9834 3.8769 8.9834 3.3174 0 3.876-4.585 3.876-8.9834 0-4.3623-.6699-8.9834-3.876-8.9834zm23.4053 22.4023c-6.9336 0-10.1026-6.2617-10.1026-13.1953 0-6.8223 3.2432-13.1963 10.1397-13.1963a9.141 9.141 0 0 1 5.5537 1.4912l-1.2295 3.6533a5.32428 5.32428 0 0 0-3.0195-.7832c-3.9512 0-5.2188 4.3995-5.2188 8.7979 0 4.3613 1.4532 8.6113 5.1817 8.6113a5.03828 5.03828 0 0 0 2.9443-.7832l1.3799 3.877a9.04348 9.04348 0 0 1-5.6289 1.5273zm9.0547-.3721V151.214h6.0381v25.6464h-6.0381zm25.0097 0l-1.5654-5.4795h-7.7168l-1.6396 5.4795h-5.4053l8.3496-25.6464h5.8896l8.3135 25.6464h-6.2256zm-4.6601-17.2968a19.4585 19.4585 0 0 1-.5957-3.0938h-.0752a21.6274 21.6274 0 0 1-.6709 3.0938l-2.3858 8.3506h6.002zm22.7344-4.2862v21.583h-6.0762v-21.583h-4.4737V151.214h14.9854v4.0634h-4.4355zm8.0488 21.583V151.214h13.1221v4.0634h-7.0459v6.5235h6.1513v3.9511h-6.1513v7.045h7.0459v4.0634h-13.1221zm22.5488.3721c-3.168 0-5.2558-.5586-6.71-1.5273l1.3799-4.2129a7.68325 7.68325 0 0 0 4.1377 1.1933c2.125 0 3.4297-1.2304 3.4297-3.0566 0-1.6406-.9697-2.6465-3.5791-3.8027-3.9883-1.7891-5.1064-4.585-5.1064-7.0821a7.73476 7.73476 0 0 1 8.1259-7.9033 10.9103 10.9103 0 0 1 6.002 1.4912l-1.2676 3.6904a7.43273 7.43273 0 0 0-3.8398-1.1181 2.75 2.75 0 0 0-3.0938 2.9453c0 1.8633 1.3047 2.7949 3.4668 3.7637 4.958 2.2373 5.666 4.959 5.666 7.5683 0 4.6221-3.541 8.0508-8.6113 8.0508z"/>
</svg>