<svg xmlns="http://www.w3.org/2000/svg" data-name="Layer 1" viewBox="0 0 400 353">
  <title>
    LW-logo-orange
  </title>
  <path fill="#f28b00" d="M396.1738 352.1729v-46.9711h-9.35232v23.89456a43.65343 43.65343 0 0 0 .27647 4.70926h-.13815a49.2691 49.2691 0 0 0-2.38784-4.50473l-14.40968-24.0991h-9.76135v46.97104h9.286v-26.1497c0-2.59232-.2709-5.1183-.2709-5.1183h.13258a46.47724 46.47724 0 0 0 2.4597 4.91377l15.63687 26.35423h8.52864zm-44.7824-46.97108h-11.06v46.97107h11.06v-46.9711zm-16.25016 46.97107l-14.19967-25.398 13.31528-21.5731H322.9202l-11.81184 21.164h-.13258v-21.164h-10.9939v46.97106h10.9939v-23.281h.13258l11.6074 23.281h12.42548zm-41.78108 0v-7.4398h-11.95v-39.5313H270.35v46.97106h23.01017zm-32.15786-46.9711h-11.0602v46.97103h11.0602V305.2018zm-17.33358-11.53h-12.49735l-6.37847 34.1809c-.597 3.23347-.85116 6.63276-.85116 6.63276h-.17138s-.3372-3.3993-1.01714-6.63277l-7.5724-34.18094h-9.8607l-7.7382 34.18093a62.3676 62.3676 0 0 0-1.10553 6.63275h-.17127s-.25437-3.3164-.85133-6.63277l-6.1187-34.18096h-13.6083l13.1827 58.50107h12.243l7.401-30.78157a48.31622 48.31622 0 0 0 1.01716-6.20717h.17137a55.12556 55.12556 0 0 0 1.10536 6.20718l7.567 30.7816h12.16z"/>
  <path fill="#eea541" d="M162.04718 348.04843a6.34236 6.34236 0 0 1-2.50946.3814c-3.57062 0-5.10173-1.7411-5.10173-4.84746 0-3.65355 2.4264-5.31174 7.61113-6.5001v10.96616zm11.05463-13.77407l-1.9125-3.9133c-3.6978 1.8295-7.7382 3.27767-11.0546 3.27767-2.46523 0-4.339-1.2326-4.339-3.36062 0-1.9566 1.27677-3.1892 3.8304-3.1892a8.6887 8.6887 0 0 1 3.8692.9341l1.91234-3.8249a14.22848 14.22848 0 0 0-7.22963-1.7024c-5.48312 0-9.0151 2.935-9.0151 7.1468 0 2.8908 1.70248 4.9746 4.6817 6.16297v.12714c-3.3164 1.14968-6.467 3.61486-6.467 8.0754 0 5.61574 4.46616 8.58945 11.823 8.58945 4.549 0 7.52264-.72407 9.35215-1.7411V335.8884a25.7083 25.7083 0 0 0 4.54916-1.614"/>
  <path fill="#f28b00" d="M134.037 312.6416v-7.43978h-23.96643v46.9711h11.13205v-20.346h11.19278v-7.23525h-11.19278V312.6416H134.037zm-30.92532 0v-7.43978H79.14524v46.9711h11.1265v-20.346h11.19833v-7.23525H90.27173V312.6416h12.83994zm-32.84323 25.67434v-33.11412h-10.2367v32.97595c0 4.23392-2.39323 6.35087-5.59917 6.35087-3.21133 0-5.66546-2.117-5.66546-6.28454v-33.04228H37.63507v33.11412c0 9.00953 6.96447 14.6087 16.3166 14.6087 9.42417 0 16.31678-5.6655 16.31678-14.6087m-39.61978 13.857v-9.2693H15.76905v-49.23178H1.995v58.50106h28.65367zm93.85173-163.1757a20.359 20.359 0 0 1-11.882-6.64212q-6.3712-6.94085-6.36364-17.93682V.07583H.36v159.71523q0 56.71137 35.008 91.1371 34.55245 33.99035 89.1324 34.42576v-96.35667z"/>
  <path fill="#eea541" d="M132.4305 285.1914a153.165 153.165 0 0 0 32.269-5.3309 121.556 121.556 0 0 0 35.87874-15.91182q30.6642 21.41484 73.4888 21.4098 54.97222 0 90.27136-34.7194 35.289-34.71935 35.3016-90.84852V.07536H293.74032V164.4178q0 21.99954-20.8275 24.88273a21.465 21.465 0 0 1-16.494-7.23447 24.3466 24.3466 0 0 1-6.6524-17.07113V.07536h-98.95367v164.91956a24.37365 24.37365 0 0 1-6.65734 17.07113 21.2456 21.2456 0 0 1-11.7249 6.83958v96.28576z"/>
</svg>