<svg xmlns="http://www.w3.org/2000/svg" data-name="Layer 1" viewBox="0 0 400 353">
  <title>
    LW-logo-colour
  </title>
  <path fill="#91c431" d="M396.2 352.2v-47h-9.4v23.9a37.07977 37.07977 0 0 0 .3 4.7h-.1a49.15455 49.15455 0 0 0-2.4-4.5l-14.4-24.1h-9.8v47h9.3V326a48.75663 48.75663 0 0 0-.3-5.1h.1a32.3198 32.3198 0 0 0 2.5 4.9l15.6 26.4h8.6zm-44.8-47h-11.1v47h11.1v-47zm-16.3 47l-14.2-25.4 13.3-21.6h-11.3l-11.8 21.2h-.1v-21.2h-11v47h11v-23.3h.1l11.6 23.3h12.4zm-41.7 0v-7.4h-12v-39.5h-11.1v47h23.1v-.1zm-32.2-47h-11.1v47h11.1v-47zm-17.3-11.5h-12.5l-6.4 34.2c-.6 3.2-.9 6.6-.9 6.6h-.1a60.45935 60.45935 0 0 0-1-6.6l-7.6-34.2h-9.9l-7.7 34.2a50.4874 50.4874 0 0 0-1.1 6.6h-.2s-.3-3.3-.9-6.6l-6.1-34.2h-13.6l13.2 58.5h12.2l7.4-30.8a42.17916 42.17916 0 0 0 1-6.2h.2a42.302 42.302 0 0 0 1.1 6.2l7.6 30.8h12.2zM162 348a7.26692 7.26692 0 0 1-2.5.4c-3.6 0-5.1-1.7-5.1-4.8 0-3.7 2.4-5.3 7.6-6.5V348zm11.1-13.7l-1.9-3.9c-3.7 1.8-7.7 3.3-11.1 3.3-2.5 0-4.3-1.2-4.3-3.4 0-2 1.3-3.2 3.8-3.2a8.9088 8.9088 0 0 1 3.9.9l1.9-3.8a13.92413 13.92413 0 0 0-7.2-1.7c-5.5 0-9 2.9-9 7.1 0 2.9 1.7 5 4.7 6.2v.1c-3.3 1.1-6.5 3.6-6.5 8.1 0 5.6 4.5 8.6 11.8 8.6 4.5 0 7.5-.7 9.4-1.7v-15a26.943 26.943 0 0 0 4.5-1.6"/>
  <path fill="#f28b00" d="M134 312.6v-7.4h-24v47h11.1v-20.3h11.2v-7.2h-11.2v-12H134v-.1zm-30.9 0v-7.4h-24v47h11.1v-20.3h11.2v-7.2H90.3v-12c0-.1 12.8-.1 12.8-.1zm-32.8 25.7v-33.1H60v33c0 4.2-2.4 6.4-5.6 6.4s-5.7-2.1-5.7-6.3v-33H37.6v33.1c0 9 7 14.6 16.3 14.6 9.5-.1 16.4-5.7 16.4-14.7m-39.7 13.9v-9.3H15.8v-49.2H2v58.5h28.6zM124.5 189a20.56276 20.56276 0 0 1-11.9-6.6c-4.2-4.6-6.4-10.6-6.4-17.9V.1H.4v159.7q0 56.7 35 91.1 34.5 34.05 89.1 34.4V189z"/>
  <path fill="#d1e5a5" d="M132.4 285.2a154.4868 154.4868 0 0 0 32.3-5.3 121.5866 121.5866 0 0 0 35.9-15.9q30.6 21.45 73.5 21.4 54.9 0 90.3-34.7 35.25-34.65 35.3-90.8V.1h-106v164.3c0 14.7-6.9 23-20.8 24.9a21.60166 21.60166 0 0 1-16.5-7.2 24.54426 24.54426 0 0 1-6.7-17.1V.1h-99V165a24.2765 24.2765 0 0 1-6.7 17.1 21.23573 21.23573 0 0 1-11.7 6.8l.1 96.3z"/>
</svg>