<svg class="nc-icon glyph" xmlns="http://www.w3.org/2000/svg" xmlns:xlink="http://www.w3.org/1999/xlink" x="0px" y="0px" width="16px" height="16px" viewBox="0 0 16 16"><g><circle data-color="color-2" fill="#7b7b7b" cx="8" cy="8" r="3"></circle>
<path fill="#7b7b7b" d="M2,6H0V1c0-0.6,0.4-1,1-1h5v2H2V6z"></path>
<path fill="#7b7b7b" d="M16,6h-2V2h-4V0h5c0.6,0,1,0.4,1,1V6z"></path>
<path fill="#7b7b7b" d="M15,16h-5v-2h4v-4h2v5C16,15.6,15.6,16,15,16z"></path>
<path fill="#7b7b7b" d="M6,16H1c-0.6,0-1-0.4-1-1v-5h2v4h4V16z"></path></g></svg>
