<svg class="nc-icon glyph" xmlns="http://www.w3.org/2000/svg" xmlns:xlink="http://www.w3.org/1999/xlink" x="0px" y="0px" width="24px" height="24px" viewBox="0 0 24 24">
<g>
<path d="M9,0C4.6,0,0,3.4,0,9c0,5.3,8,13.4,8.3,13.7C8.5,22.9,8.7,23,9,23s0.5-0.1,0.7-0.3C10,22.4,18,14.3,18,9
	C18,3.4,13.4,0,9,0z M9,12c-1.7,0-3-1.3-3-3s1.3-3,3-3s3,1.3,3,3S10.7,12,9,12z"></path>
<path data-color="color-2" d="M16,0c-0.2,0-0.4,0-0.6,0C18.1,1.9,20,5,20,9c0,3.4-2.5,7.5-4.9,10.5
	c0.1,0.1,0.2,0.2,0.2,0.2c0.2,0.2,0.4,0.3,0.7,0.3s0.5-0.1,0.7-0.3C17.4,19,24,12.6,24,8C24,3,19.9,0,16,0z"></path>
</g>
</svg>
