<svg class="nc-icon glyph" xmlns="http://www.w3.org/2000/svg" xmlns:xlink="http://www.w3.org/1999/xlink" x="0px" y="0px" width="32px" height="32px" viewBox="0 0 32 32">
	<g>
		<path d="M25,7.1V1c0-0.6-0.4-1-1-1H8C7.4,0,7,0.4,7,1v6.1C3.1,7.6,0,10.9,0,15v9c0,0.6,0.4,1,1,1h6.6l6.7,6.7
			c0.1,0.1,0.2,0.2,0.3,0.2C14.7,32,14.9,32,15,32h9c0.6,0,1-0.4,1-1v-6h6c0.6,0,1-0.4,1-1v-9C32,10.9,28.9,7.6,25,7.1z M9,2h14v5H9V2
			z M14,28.6L10.4,25H14V28.6z M23,30h-7v-6c0-0.6-0.4-1-1-1H9v-4h14V30z M24,14h-2c-0.6,0-1-0.4-1-1s0.4-1,1-1h2c0.6,0,1,0.4,1,1
			S24.6,14,24,14z">
		</path>
	</g>
</svg>
