<svg xmlns="http://www.w3.org/2000/svg" xmlns:xlink="http://www.w3.org/1999/xlink" class="hide"><symbol id="close-icon" viewBox="0 0 24 24"><g transform="translate(0, 0)">
<line stroke-width="2" stroke-linecap="square" stroke-miterlimit="10" x1="19" y1="5" x2="5" y2="19" stroke-linejoin="miter"/>
<line stroke-width="2" stroke-linecap="square" stroke-miterlimit="10" x1="19" y1="19" x2="5" y2="5" stroke-linejoin="miter"/>
</g></symbol><symbol id="facebook" viewBox="0 0 16 16"><g><path fill="#f26324" d="M6.02293,16L6,9H3V6h3V4c0-2.6992,1.67151-4,4.07938-4c1.15339,0,2.14468,0.08587,2.43356,0.12425v2.82082
	l-1.66998,0.00076c-1.30953,0-1.56309,0.62227-1.56309,1.53541V6H13l-1,3H9.27986v7H6.02293z"/></g></symbol><symbol id="googleplus" viewBox="0 0 16 16"><g>
<path fill="#f26324" d="M8,7v2.4h4.1c-0.2,1-1.2,3-4,3c-2.4,0-4.3-2-4.3-4.4s2-4.4,4.3-4.4
	c1.4,0,2.3,0.6,2.8,1.1l1.9-1.8C11.6,1.7,10,1,8.1,1c-3.9,0-7,3.1-7,7s3.1,7,7,7c4,0,6.7-2.8,6.7-6.8c0-0.5,0-0.8-0.1-1.2H8L8,7z"/>
</g></symbol><symbol id="home" viewBox="0 0 24 24"><g>
<path d="M12,0.648L7,5.194V3H4v4.921L0.327,11.26l1.346,1.48L3,11.534V22c0,0.553,0.448,1,1,1h6v-6h4v6h6
	c0.552,0,1-0.447,1-1V11.534l1.327,1.207l1.346-1.48L12,0.648z M14,13h-4V9h4V13z"/>
</g></symbol><symbol id="info" viewBox="0 0 24 24"><g>
<path d="M16,21h-3V9c0-0.6-0.4-1-1-1H8C7.4,8,7,8.4,7,9s0.4,1,1,1h3v11H8c-0.6,0-1,0.4-1,1s0.4,1,1,1h8
	c0.6,0,1-0.4,1-1S16.6,21,16,21z"/>
<circle data-color="color-2" cx="12" cy="3" r="2"/>
</g></symbol><symbol id="instagram" viewBox="0 0 16 16"><g>
<path fill="#f26324" d="M14.1,0H1.9C0.9,0,0,0.8,0,1.9v12.2c0,1,0.9,1.9,1.9,1.9h12.2c1.1,0,1.9-0.8,1.9-1.9V1.9
	C16,0.8,15.1,0,14.1,0z M8,4.9c1.7,0,3.1,1.4,3.1,3.1c0,1.7-1.4,3.1-3.1,3.1c-1.7,0-3.1-1.4-3.1-3.1C4.9,6.3,6.3,4.9,8,4.9z
	 M14,13.3c0,0.4-0.3,0.7-0.7,0.7H2.7C2.3,14,2,13.7,2,13.3V6.7h1.3C3.1,7.4,3.1,8.3,3.3,9.1c0.4,1.9,1.9,3.3,3.8,3.7
	c3.1,0.6,5.8-1.8,5.8-4.8c0-0.4-0.1-0.9-0.2-1.4H14V13.3z M14,4h-2V2h2V4z"/>
</g></symbol><symbol id="linkedin" viewBox="0 0 16 16"><g>
<path fill="#f26324" d="M15.3,0H0.7C0.3,0,0,0.3,0,0.7v14.7C0,15.7,0.3,16,0.7,16h14.7c0.4,0,0.7-0.3,0.7-0.7V0.7
	C16,0.3,15.7,0,15.3,0z M4.7,13.6H2.4V6h2.4V13.6z M3.6,5C2.8,5,2.2,4.3,2.2,3.6c0-0.8,0.6-1.4,1.4-1.4c0.8,0,1.4,0.6,1.4,1.4
	C4.9,4.3,4.3,5,3.6,5z M13.6,13.6h-2.4V9.9c0-0.9,0-2-1.2-2c-1.2,0-1.4,1-1.4,2v3.8H6.2V6h2.3v1h0c0.3-0.6,1.1-1.2,2.2-1.2
	c2.4,0,2.8,1.6,2.8,3.6V13.6z"/>
</g></symbol><symbol id="menu-icon" viewBox="0 0 24 24"><g transform="translate(0, 0)">
<line data-color="color-2" stroke-width="2" stroke-linecap="square" stroke-miterlimit="10" x1="1" y1="12" x2="23" y2="12" stroke-linejoin="miter"/>
<line stroke-width="2" stroke-linecap="square" stroke-miterlimit="10" x1="1" y1="5" x2="23" y2="5" stroke-linejoin="miter"/>
<line stroke-width="2" stroke-linecap="square" stroke-miterlimit="10" x1="1" y1="19" x2="23" y2="19" stroke-linejoin="miter"/>
</g></symbol><symbol id="mobile" viewBox="0 0 24 24"><g>
<path d="M17,0H7C4.8,0,3,1.8,3,4v16c0,2.2,1.8,4,4,4h10c2.2,0,4-1.8,4-4V4C21,1.8,19.2,0,17,0z M6,5c0-0.6,0.4-1,1-1
	h10c0.6,0,1,0.4,1,1v10H6V5z M18,19c0,0.6-0.4,1-1,1H7c-0.6,0-1-0.4-1-1v-2h12V19z"/>
</g></symbol><symbol id="pinterest" viewBox="0 0 16 16"><g>
<path fill="#f26324" d="M8,0C3.6,0,0,3.6,0,8c0,3.4,2.1,6.3,5.1,7.4c-0.1-0.6-0.1-1.6,0-2.3c0.1-0.6,0.9-4,0.9-4S5.8,8.7,5.8,8
	C5.8,6.9,6.5,6,7.3,6c0.7,0,1,0.5,1,1.1c0,0.7-0.4,1.7-0.7,2.7c-0.2,0.8,0.4,1.4,1.2,1.4c1.4,0,2.5-1.5,2.5-3.7
	c0-1.9-1.4-3.3-3.3-3.3c-2.3,0-3.6,1.7-3.6,3.5c0,0.7,0.3,1.4,0.6,1.8C5,9.7,5,9.8,5,9.9c-0.1,0.3-0.2,0.8-0.2,0.9
	c0,0.1-0.1,0.2-0.3,0.1c-1-0.5-1.6-1.9-1.6-3.1C2.9,5.3,4.7,3,8.2,3c2.8,0,4.9,2,4.9,4.6c0,2.8-1.7,5-4.2,5c-0.8,0-1.6-0.4-1.8-0.9
	c0,0-0.4,1.5-0.5,1.9c-0.2,0.7-0.7,1.6-1,2.1C6.4,15.9,7.2,16,8,16c4.4,0,8-3.6,8-8C16,3.6,12.4,0,8,0z"/>
</g></symbol><symbol id="plane" viewBox="0 0 24 24"><g>
<path d="M1.423,11.048L4,13l9-4l-6.977,5.499v6.749c0,0.933,1.164,1.358,1.765,0.644l3.131-3.72l6.5,4.876
	c0.589,0.441,1.436,0.118,1.581-0.604l4.004-20c0.156-0.779-0.615-1.42-1.352-1.125l-20,8C0.928,9.609,0.799,10.58,1.423,11.048z"/>
</g></symbol><symbol id="search-btn" viewBox="0 0 24 24">
<g>
<path fill="#ffffff" d="M9,0C4.6,0,0,3.4,0,9c0,5.3,8,13.4,8.3,13.7C8.5,22.9,8.7,23,9,23s0.5-0.1,0.7-0.3C10,22.4,18,14.3,18,9
	C18,3.4,13.4,0,9,0z M9,12c-1.7,0-3-1.3-3-3s1.3-3,3-3s3,1.3,3,3S10.7,12,9,12z"/>
<path data-color="color-2" fill="#a4a4a4" d="M16,0c-0.2,0-0.4,0-0.6,0C18.1,1.9,20,5,20,9c0,3.4-2.5,7.5-4.9,10.5
	c0.1,0.1,0.2,0.2,0.2,0.2c0.2,0.2,0.4,0.3,0.7,0.3s0.5-0.1,0.7-0.3C17.4,19,24,12.6,24,8C24,3,19.9,0,16,0z"/>
</g>
</symbol><symbol id="search-menu" viewBox="0 0 24 24"><g transform="translate(0, 0)">
<line data-color="color-2" stroke-width="2" stroke-linecap="square" stroke-miterlimit="10" x1="22" y1="22" x2="16.4" y2="16.4" stroke-linejoin="miter"/>
<circle stroke-width="2" stroke-linecap="square" stroke-miterlimit="10" cx="10" cy="10" r="9" stroke-linejoin="miter"/>
</g></symbol><symbol id="search" viewBox="0 0 24 24"><g>
<path data-color="color-2" fill="#ffffff" d="M19.707,18.293c-0.391-0.391-1.023-0.391-1.414,0s-0.391,1.023,0,1.414l3,3C21.488,22.902,21.744,23,22,23
		s0.512-0.098,0.707-0.293c0.391-0.391,0.391-1.023,0-1.414L19.707,18.293z"/>
	<path fill="#ffffff" d="M10,0C4.486,0,0,4.486,0,10s4.486,10,10,10s10-4.486,10-10S15.514,0,10,0z M14,11h-3v3H9v-3H6V9h3V6h2v3h3
		V11z"/>
</g></symbol><symbol id="star" viewBox="0 0 24 24"><g transform="translate(0, 0)">
<polygon stroke-width="2" stroke-linecap="square" stroke-miterlimit="10" points="12,2.6 15,9 
	21.4,9 16.7,13.9 18.6,21.4 12,17.6 5.4,21.4 7.3,13.9 2.6,9 9,9 " stroke-linejoin="miter"/>
</g></symbol><symbol id="subscribe" viewBox="0 0 32 32">
  <title>
    form-icon
  </title>
  <g fill="none" stroke-linecap="square" stroke-miterlimit="10" stroke-width="2">
    <path stroke="#91c431" d="M13 6.5H1V31h24.497V19"/>
    <path stroke="#f18b00" d="M22 5l5 5M15 22h-5v-5L25 2l5 5-15 15z"/>
  </g>
</symbol><symbol id="svg"><symbol id="close-icon" viewBox="0 0 24 24"><g transform="translate(0, 0)">
<line stroke-width="2" stroke-linecap="square" stroke-miterlimit="10" x1="19" y1="5" x2="5" y2="19" stroke-linejoin="miter"/>
<line stroke-width="2" stroke-linecap="square" stroke-miterlimit="10" x1="19" y1="19" x2="5" y2="5" stroke-linejoin="miter"/>
</g></symbol><symbol id="facebook" viewBox="0 0 16 16"><g><path fill="#f26324" d="M6.02293,16L6,9H3V6h3V4c0-2.6992,1.67151-4,4.07938-4c1.15339,0,2.14468,0.08587,2.43356,0.12425v2.82082
	l-1.66998,0.00076c-1.30953,0-1.56309,0.62227-1.56309,1.53541V6H13l-1,3H9.27986v7H6.02293z"/></g></symbol><symbol id="googleplus" viewBox="0 0 16 16"><g>
<path fill="#f26324" d="M8,7v2.4h4.1c-0.2,1-1.2,3-4,3c-2.4,0-4.3-2-4.3-4.4s2-4.4,4.3-4.4
	c1.4,0,2.3,0.6,2.8,1.1l1.9-1.8C11.6,1.7,10,1,8.1,1c-3.9,0-7,3.1-7,7s3.1,7,7,7c4,0,6.7-2.8,6.7-6.8c0-0.5,0-0.8-0.1-1.2H8L8,7z"/>
</g></symbol><symbol id="home" viewBox="0 0 24 24"><g>
<path d="M12,0.648L7,5.194V3H4v4.921L0.327,11.26l1.346,1.48L3,11.534V22c0,0.553,0.448,1,1,1h6v-6h4v6h6
	c0.552,0,1-0.447,1-1V11.534l1.327,1.207l1.346-1.48L12,0.648z M14,13h-4V9h4V13z"/>
</g></symbol><symbol id="info" viewBox="0 0 24 24"><g>
<path d="M16,21h-3V9c0-0.6-0.4-1-1-1H8C7.4,8,7,8.4,7,9s0.4,1,1,1h3v11H8c-0.6,0-1,0.4-1,1s0.4,1,1,1h8
	c0.6,0,1-0.4,1-1S16.6,21,16,21z"/>
<circle data-color="color-2" cx="12" cy="3" r="2"/>
</g></symbol><symbol id="instagram" viewBox="0 0 16 16"><g>
<path fill="#f26324" d="M14.1,0H1.9C0.9,0,0,0.8,0,1.9v12.2c0,1,0.9,1.9,1.9,1.9h12.2c1.1,0,1.9-0.8,1.9-1.9V1.9
	C16,0.8,15.1,0,14.1,0z M8,4.9c1.7,0,3.1,1.4,3.1,3.1c0,1.7-1.4,3.1-3.1,3.1c-1.7,0-3.1-1.4-3.1-3.1C4.9,6.3,6.3,4.9,8,4.9z
	 M14,13.3c0,0.4-0.3,0.7-0.7,0.7H2.7C2.3,14,2,13.7,2,13.3V6.7h1.3C3.1,7.4,3.1,8.3,3.3,9.1c0.4,1.9,1.9,3.3,3.8,3.7
	c3.1,0.6,5.8-1.8,5.8-4.8c0-0.4-0.1-0.9-0.2-1.4H14V13.3z M14,4h-2V2h2V4z"/>
</g></symbol><symbol id="linkedin" viewBox="0 0 16 16"><g>
<path fill="#f26324" d="M15.3,0H0.7C0.3,0,0,0.3,0,0.7v14.7C0,15.7,0.3,16,0.7,16h14.7c0.4,0,0.7-0.3,0.7-0.7V0.7
	C16,0.3,15.7,0,15.3,0z M4.7,13.6H2.4V6h2.4V13.6z M3.6,5C2.8,5,2.2,4.3,2.2,3.6c0-0.8,0.6-1.4,1.4-1.4c0.8,0,1.4,0.6,1.4,1.4
	C4.9,4.3,4.3,5,3.6,5z M13.6,13.6h-2.4V9.9c0-0.9,0-2-1.2-2c-1.2,0-1.4,1-1.4,2v3.8H6.2V6h2.3v1h0c0.3-0.6,1.1-1.2,2.2-1.2
	c2.4,0,2.8,1.6,2.8,3.6V13.6z"/>
</g></symbol><symbol id="menu-icon" viewBox="0 0 24 24"><g transform="translate(0, 0)">
<line data-color="color-2" stroke-width="2" stroke-linecap="square" stroke-miterlimit="10" x1="1" y1="12" x2="23" y2="12" stroke-linejoin="miter"/>
<line stroke-width="2" stroke-linecap="square" stroke-miterlimit="10" x1="1" y1="5" x2="23" y2="5" stroke-linejoin="miter"/>
<line stroke-width="2" stroke-linecap="square" stroke-miterlimit="10" x1="1" y1="19" x2="23" y2="19" stroke-linejoin="miter"/>
</g></symbol><symbol id="mobile" viewBox="0 0 24 24"><g>
<path d="M17,0H7C4.8,0,3,1.8,3,4v16c0,2.2,1.8,4,4,4h10c2.2,0,4-1.8,4-4V4C21,1.8,19.2,0,17,0z M6,5c0-0.6,0.4-1,1-1
	h10c0.6,0,1,0.4,1,1v10H6V5z M18,19c0,0.6-0.4,1-1,1H7c-0.6,0-1-0.4-1-1v-2h12V19z"/>
</g></symbol><symbol id="pinterest" viewBox="0 0 16 16"><g>
<path fill="#f26324" d="M8,0C3.6,0,0,3.6,0,8c0,3.4,2.1,6.3,5.1,7.4c-0.1-0.6-0.1-1.6,0-2.3c0.1-0.6,0.9-4,0.9-4S5.8,8.7,5.8,8
	C5.8,6.9,6.5,6,7.3,6c0.7,0,1,0.5,1,1.1c0,0.7-0.4,1.7-0.7,2.7c-0.2,0.8,0.4,1.4,1.2,1.4c1.4,0,2.5-1.5,2.5-3.7
	c0-1.9-1.4-3.3-3.3-3.3c-2.3,0-3.6,1.7-3.6,3.5c0,0.7,0.3,1.4,0.6,1.8C5,9.7,5,9.8,5,9.9c-0.1,0.3-0.2,0.8-0.2,0.9
	c0,0.1-0.1,0.2-0.3,0.1c-1-0.5-1.6-1.9-1.6-3.1C2.9,5.3,4.7,3,8.2,3c2.8,0,4.9,2,4.9,4.6c0,2.8-1.7,5-4.2,5c-0.8,0-1.6-0.4-1.8-0.9
	c0,0-0.4,1.5-0.5,1.9c-0.2,0.7-0.7,1.6-1,2.1C6.4,15.9,7.2,16,8,16c4.4,0,8-3.6,8-8C16,3.6,12.4,0,8,0z"/>
</g></symbol><symbol id="plane" viewBox="0 0 24 24"><g>
<path d="M1.423,11.048L4,13l9-4l-6.977,5.499v6.749c0,0.933,1.164,1.358,1.765,0.644l3.131-3.72l6.5,4.876
	c0.589,0.441,1.436,0.118,1.581-0.604l4.004-20c0.156-0.779-0.615-1.42-1.352-1.125l-20,8C0.928,9.609,0.799,10.58,1.423,11.048z"/>
</g></symbol><symbol id="search-btn" viewBox="0 0 24 24">
<g>
<path fill="#ffffff" d="M9,0C4.6,0,0,3.4,0,9c0,5.3,8,13.4,8.3,13.7C8.5,22.9,8.7,23,9,23s0.5-0.1,0.7-0.3C10,22.4,18,14.3,18,9
	C18,3.4,13.4,0,9,0z M9,12c-1.7,0-3-1.3-3-3s1.3-3,3-3s3,1.3,3,3S10.7,12,9,12z"/>
<path data-color="color-2" fill="#a4a4a4" d="M16,0c-0.2,0-0.4,0-0.6,0C18.1,1.9,20,5,20,9c0,3.4-2.5,7.5-4.9,10.5
	c0.1,0.1,0.2,0.2,0.2,0.2c0.2,0.2,0.4,0.3,0.7,0.3s0.5-0.1,0.7-0.3C17.4,19,24,12.6,24,8C24,3,19.9,0,16,0z"/>
</g>
</symbol><symbol id="search-menu" viewBox="0 0 24 24"><g transform="translate(0, 0)">
<line data-color="color-2" stroke-width="2" stroke-linecap="square" stroke-miterlimit="10" x1="22" y1="22" x2="16.4" y2="16.4" stroke-linejoin="miter"/>
<circle stroke-width="2" stroke-linecap="square" stroke-miterlimit="10" cx="10" cy="10" r="9" stroke-linejoin="miter"/>
</g></symbol><symbol id="search" viewBox="0 0 24 24"><g>
<path data-color="color-2" fill="#ffffff" d="M19.707,18.293c-0.391-0.391-1.023-0.391-1.414,0s-0.391,1.023,0,1.414l3,3C21.488,22.902,21.744,23,22,23
		s0.512-0.098,0.707-0.293c0.391-0.391,0.391-1.023,0-1.414L19.707,18.293z"/>
	<path fill="#ffffff" d="M10,0C4.486,0,0,4.486,0,10s4.486,10,10,10s10-4.486,10-10S15.514,0,10,0z M14,11h-3v3H9v-3H6V9h3V6h2v3h3
		V11z"/>
</g></symbol><symbol id="star" viewBox="0 0 24 24"><g transform="translate(0, 0)">
<polygon stroke-width="2" stroke-linecap="square" stroke-miterlimit="10" points="12,2.6 15,9 
	21.4,9 16.7,13.9 18.6,21.4 12,17.6 5.4,21.4 7.3,13.9 2.6,9 9,9 " stroke-linejoin="miter"/>
</g></symbol><symbol id="subscribe" viewBox="0 0 32 32">
  <title>
    form-icon
  </title>
  <g fill="none" stroke-linecap="square" stroke-miterlimit="10" stroke-width="2">
    <path stroke="#91c431" d="M13 6.5H1V31h24.497V19"/>
    <path stroke="#f18b00" d="M22 5l5 5M15 22h-5v-5L25 2l5 5-15 15z"/>
  </g>
</symbol><symbol id="svg"><symbol id="close-icon" viewBox="0 0 24 24"><g transform="translate(0, 0)">
<line stroke-width="2" stroke-linecap="square" stroke-miterlimit="10" x1="19" y1="5" x2="5" y2="19" stroke-linejoin="miter"/>
<line stroke-width="2" stroke-linecap="square" stroke-miterlimit="10" x1="19" y1="19" x2="5" y2="5" stroke-linejoin="miter"/>
</g></symbol><symbol id="facebook" viewBox="0 0 16 16"><g><path fill="#f26324" d="M6.02293,16L6,9H3V6h3V4c0-2.6992,1.67151-4,4.07938-4c1.15339,0,2.14468,0.08587,2.43356,0.12425v2.82082
	l-1.66998,0.00076c-1.30953,0-1.56309,0.62227-1.56309,1.53541V6H13l-1,3H9.27986v7H6.02293z"/></g></symbol><symbol id="googleplus" viewBox="0 0 16 16"><g>
<path fill="#f26324" d="M8,7v2.4h4.1c-0.2,1-1.2,3-4,3c-2.4,0-4.3-2-4.3-4.4s2-4.4,4.3-4.4
	c1.4,0,2.3,0.6,2.8,1.1l1.9-1.8C11.6,1.7,10,1,8.1,1c-3.9,0-7,3.1-7,7s3.1,7,7,7c4,0,6.7-2.8,6.7-6.8c0-0.5,0-0.8-0.1-1.2H8L8,7z"/>
</g></symbol><symbol id="home" viewBox="0 0 24 24"><g>
<path d="M12,0.648L7,5.194V3H4v4.921L0.327,11.26l1.346,1.48L3,11.534V22c0,0.553,0.448,1,1,1h6v-6h4v6h6
	c0.552,0,1-0.447,1-1V11.534l1.327,1.207l1.346-1.48L12,0.648z M14,13h-4V9h4V13z"/>
</g></symbol><symbol id="info" viewBox="0 0 24 24"><g>
<path d="M16,21h-3V9c0-0.6-0.4-1-1-1H8C7.4,8,7,8.4,7,9s0.4,1,1,1h3v11H8c-0.6,0-1,0.4-1,1s0.4,1,1,1h8
	c0.6,0,1-0.4,1-1S16.6,21,16,21z"/>
<circle data-color="color-2" cx="12" cy="3" r="2"/>
</g></symbol><symbol id="instagram" viewBox="0 0 16 16"><g>
<path fill="#f26324" d="M14.1,0H1.9C0.9,0,0,0.8,0,1.9v12.2c0,1,0.9,1.9,1.9,1.9h12.2c1.1,0,1.9-0.8,1.9-1.9V1.9
	C16,0.8,15.1,0,14.1,0z M8,4.9c1.7,0,3.1,1.4,3.1,3.1c0,1.7-1.4,3.1-3.1,3.1c-1.7,0-3.1-1.4-3.1-3.1C4.9,6.3,6.3,4.9,8,4.9z
	 M14,13.3c0,0.4-0.3,0.7-0.7,0.7H2.7C2.3,14,2,13.7,2,13.3V6.7h1.3C3.1,7.4,3.1,8.3,3.3,9.1c0.4,1.9,1.9,3.3,3.8,3.7
	c3.1,0.6,5.8-1.8,5.8-4.8c0-0.4-0.1-0.9-0.2-1.4H14V13.3z M14,4h-2V2h2V4z"/>
</g></symbol><symbol id="linkedin" viewBox="0 0 16 16"><g>
<path fill="#f26324" d="M15.3,0H0.7C0.3,0,0,0.3,0,0.7v14.7C0,15.7,0.3,16,0.7,16h14.7c0.4,0,0.7-0.3,0.7-0.7V0.7
	C16,0.3,15.7,0,15.3,0z M4.7,13.6H2.4V6h2.4V13.6z M3.6,5C2.8,5,2.2,4.3,2.2,3.6c0-0.8,0.6-1.4,1.4-1.4c0.8,0,1.4,0.6,1.4,1.4
	C4.9,4.3,4.3,5,3.6,5z M13.6,13.6h-2.4V9.9c0-0.9,0-2-1.2-2c-1.2,0-1.4,1-1.4,2v3.8H6.2V6h2.3v1h0c0.3-0.6,1.1-1.2,2.2-1.2
	c2.4,0,2.8,1.6,2.8,3.6V13.6z"/>
</g></symbol><symbol id="menu-icon" viewBox="0 0 24 24"><g transform="translate(0, 0)">
<line data-color="color-2" stroke-width="2" stroke-linecap="square" stroke-miterlimit="10" x1="1" y1="12" x2="23" y2="12" stroke-linejoin="miter"/>
<line stroke-width="2" stroke-linecap="square" stroke-miterlimit="10" x1="1" y1="5" x2="23" y2="5" stroke-linejoin="miter"/>
<line stroke-width="2" stroke-linecap="square" stroke-miterlimit="10" x1="1" y1="19" x2="23" y2="19" stroke-linejoin="miter"/>
</g></symbol><symbol id="mobile" viewBox="0 0 24 24"><g>
<path d="M17,0H7C4.8,0,3,1.8,3,4v16c0,2.2,1.8,4,4,4h10c2.2,0,4-1.8,4-4V4C21,1.8,19.2,0,17,0z M6,5c0-0.6,0.4-1,1-1
	h10c0.6,0,1,0.4,1,1v10H6V5z M18,19c0,0.6-0.4,1-1,1H7c-0.6,0-1-0.4-1-1v-2h12V19z"/>
</g></symbol><symbol id="pinterest" viewBox="0 0 16 16"><g>
<path fill="#f26324" d="M8,0C3.6,0,0,3.6,0,8c0,3.4,2.1,6.3,5.1,7.4c-0.1-0.6-0.1-1.6,0-2.3c0.1-0.6,0.9-4,0.9-4S5.8,8.7,5.8,8
	C5.8,6.9,6.5,6,7.3,6c0.7,0,1,0.5,1,1.1c0,0.7-0.4,1.7-0.7,2.7c-0.2,0.8,0.4,1.4,1.2,1.4c1.4,0,2.5-1.5,2.5-3.7
	c0-1.9-1.4-3.3-3.3-3.3c-2.3,0-3.6,1.7-3.6,3.5c0,0.7,0.3,1.4,0.6,1.8C5,9.7,5,9.8,5,9.9c-0.1,0.3-0.2,0.8-0.2,0.9
	c0,0.1-0.1,0.2-0.3,0.1c-1-0.5-1.6-1.9-1.6-3.1C2.9,5.3,4.7,3,8.2,3c2.8,0,4.9,2,4.9,4.6c0,2.8-1.7,5-4.2,5c-0.8,0-1.6-0.4-1.8-0.9
	c0,0-0.4,1.5-0.5,1.9c-0.2,0.7-0.7,1.6-1,2.1C6.4,15.9,7.2,16,8,16c4.4,0,8-3.6,8-8C16,3.6,12.4,0,8,0z"/>
</g></symbol><symbol id="plane" viewBox="0 0 24 24"><g>
<path d="M1.423,11.048L4,13l9-4l-6.977,5.499v6.749c0,0.933,1.164,1.358,1.765,0.644l3.131-3.72l6.5,4.876
	c0.589,0.441,1.436,0.118,1.581-0.604l4.004-20c0.156-0.779-0.615-1.42-1.352-1.125l-20,8C0.928,9.609,0.799,10.58,1.423,11.048z"/>
</g></symbol><symbol id="search-btn" viewBox="0 0 24 24">
<g>
<path fill="#ffffff" d="M9,0C4.6,0,0,3.4,0,9c0,5.3,8,13.4,8.3,13.7C8.5,22.9,8.7,23,9,23s0.5-0.1,0.7-0.3C10,22.4,18,14.3,18,9
	C18,3.4,13.4,0,9,0z M9,12c-1.7,0-3-1.3-3-3s1.3-3,3-3s3,1.3,3,3S10.7,12,9,12z"/>
<path data-color="color-2" fill="#a4a4a4" d="M16,0c-0.2,0-0.4,0-0.6,0C18.1,1.9,20,5,20,9c0,3.4-2.5,7.5-4.9,10.5
	c0.1,0.1,0.2,0.2,0.2,0.2c0.2,0.2,0.4,0.3,0.7,0.3s0.5-0.1,0.7-0.3C17.4,19,24,12.6,24,8C24,3,19.9,0,16,0z"/>
</g>
</symbol><symbol id="search-menu" viewBox="0 0 24 24"><g transform="translate(0, 0)">
<line data-color="color-2" stroke-width="2" stroke-linecap="square" stroke-miterlimit="10" x1="22" y1="22" x2="16.4" y2="16.4" stroke-linejoin="miter"/>
<circle stroke-width="2" stroke-linecap="square" stroke-miterlimit="10" cx="10" cy="10" r="9" stroke-linejoin="miter"/>
</g></symbol><symbol id="search" viewBox="0 0 24 24"><g>
<path data-color="color-2" fill="#ffffff" d="M19.707,18.293c-0.391-0.391-1.023-0.391-1.414,0s-0.391,1.023,0,1.414l3,3C21.488,22.902,21.744,23,22,23
		s0.512-0.098,0.707-0.293c0.391-0.391,0.391-1.023,0-1.414L19.707,18.293z"/>
	<path fill="#ffffff" d="M10,0C4.486,0,0,4.486,0,10s4.486,10,10,10s10-4.486,10-10S15.514,0,10,0z M14,11h-3v3H9v-3H6V9h3V6h2v3h3
		V11z"/>
</g></symbol><symbol id="star" viewBox="0 0 24 24"><g transform="translate(0, 0)">
<polygon stroke-width="2" stroke-linecap="square" stroke-miterlimit="10" points="12,2.6 15,9 
	21.4,9 16.7,13.9 18.6,21.4 12,17.6 5.4,21.4 7.3,13.9 2.6,9 9,9 " stroke-linejoin="miter"/>
</g></symbol><symbol id="svg"><symbol id="close-icon" viewBox="0 0 24 24"><g transform="translate(0, 0)">
<line stroke-width="2" stroke-linecap="square" stroke-miterlimit="10" x1="19" y1="5" x2="5" y2="19" stroke-linejoin="miter"/>
<line stroke-width="2" stroke-linecap="square" stroke-miterlimit="10" x1="19" y1="19" x2="5" y2="5" stroke-linejoin="miter"/>
</g></symbol><symbol id="facebook" viewBox="0 0 16 16"><g><path fill="#f26324" d="M6.02293,16L6,9H3V6h3V4c0-2.6992,1.67151-4,4.07938-4c1.15339,0,2.14468,0.08587,2.43356,0.12425v2.82082
	l-1.66998,0.00076c-1.30953,0-1.56309,0.62227-1.56309,1.53541V6H13l-1,3H9.27986v7H6.02293z"/></g></symbol><symbol id="googleplus" viewBox="0 0 16 16"><g>
<path fill="#f26324" d="M8,7v2.4h4.1c-0.2,1-1.2,3-4,3c-2.4,0-4.3-2-4.3-4.4s2-4.4,4.3-4.4
	c1.4,0,2.3,0.6,2.8,1.1l1.9-1.8C11.6,1.7,10,1,8.1,1c-3.9,0-7,3.1-7,7s3.1,7,7,7c4,0,6.7-2.8,6.7-6.8c0-0.5,0-0.8-0.1-1.2H8L8,7z"/>
</g></symbol><symbol id="home" viewBox="0 0 24 24"><g>
<path d="M12,0.648L7,5.194V3H4v4.921L0.327,11.26l1.346,1.48L3,11.534V22c0,0.553,0.448,1,1,1h6v-6h4v6h6
	c0.552,0,1-0.447,1-1V11.534l1.327,1.207l1.346-1.48L12,0.648z M14,13h-4V9h4V13z"/>
</g></symbol><symbol id="info" viewBox="0 0 24 24"><g>
<path d="M16,21h-3V9c0-0.6-0.4-1-1-1H8C7.4,8,7,8.4,7,9s0.4,1,1,1h3v11H8c-0.6,0-1,0.4-1,1s0.4,1,1,1h8
	c0.6,0,1-0.4,1-1S16.6,21,16,21z"/>
<circle data-color="color-2" fill="#a4a4a4" cx="12" cy="3" r="2"/>
</g></symbol><symbol id="instagram" viewBox="0 0 16 16"><g>
<path fill="#f26324" d="M14.1,0H1.9C0.9,0,0,0.8,0,1.9v12.2c0,1,0.9,1.9,1.9,1.9h12.2c1.1,0,1.9-0.8,1.9-1.9V1.9
	C16,0.8,15.1,0,14.1,0z M8,4.9c1.7,0,3.1,1.4,3.1,3.1c0,1.7-1.4,3.1-3.1,3.1c-1.7,0-3.1-1.4-3.1-3.1C4.9,6.3,6.3,4.9,8,4.9z
	 M14,13.3c0,0.4-0.3,0.7-0.7,0.7H2.7C2.3,14,2,13.7,2,13.3V6.7h1.3C3.1,7.4,3.1,8.3,3.3,9.1c0.4,1.9,1.9,3.3,3.8,3.7
	c3.1,0.6,5.8-1.8,5.8-4.8c0-0.4-0.1-0.9-0.2-1.4H14V13.3z M14,4h-2V2h2V4z"/>
</g></symbol><symbol id="linkedin" viewBox="0 0 16 16"><g>
<path fill="#f26324" d="M15.3,0H0.7C0.3,0,0,0.3,0,0.7v14.7C0,15.7,0.3,16,0.7,16h14.7c0.4,0,0.7-0.3,0.7-0.7V0.7
	C16,0.3,15.7,0,15.3,0z M4.7,13.6H2.4V6h2.4V13.6z M3.6,5C2.8,5,2.2,4.3,2.2,3.6c0-0.8,0.6-1.4,1.4-1.4c0.8,0,1.4,0.6,1.4,1.4
	C4.9,4.3,4.3,5,3.6,5z M13.6,13.6h-2.4V9.9c0-0.9,0-2-1.2-2c-1.2,0-1.4,1-1.4,2v3.8H6.2V6h2.3v1h0c0.3-0.6,1.1-1.2,2.2-1.2
	c2.4,0,2.8,1.6,2.8,3.6V13.6z"/>
</g></symbol><symbol id="menu-icon" viewBox="0 0 24 24"><g transform="translate(0, 0)">
<line data-color="color-2" stroke-width="2" stroke-linecap="square" stroke-miterlimit="10" x1="1" y1="12" x2="23" y2="12" stroke-linejoin="miter"/>
<line stroke-width="2" stroke-linecap="square" stroke-miterlimit="10" x1="1" y1="5" x2="23" y2="5" stroke-linejoin="miter"/>
<line stroke-width="2" stroke-linecap="square" stroke-miterlimit="10" x1="1" y1="19" x2="23" y2="19" stroke-linejoin="miter"/>
</g></symbol><symbol id="mobile" viewBox="0 0 24 24"><g>
<path d="M17,0H7C4.8,0,3,1.8,3,4v16c0,2.2,1.8,4,4,4h10c2.2,0,4-1.8,4-4V4C21,1.8,19.2,0,17,0z M6,5c0-0.6,0.4-1,1-1
	h10c0.6,0,1,0.4,1,1v10H6V5z M18,19c0,0.6-0.4,1-1,1H7c-0.6,0-1-0.4-1-1v-2h12V19z"/>
</g></symbol><symbol id="pinterest" viewBox="0 0 16 16"><g>
<path fill="#f26324" d="M8,0C3.6,0,0,3.6,0,8c0,3.4,2.1,6.3,5.1,7.4c-0.1-0.6-0.1-1.6,0-2.3c0.1-0.6,0.9-4,0.9-4S5.8,8.7,5.8,8
	C5.8,6.9,6.5,6,7.3,6c0.7,0,1,0.5,1,1.1c0,0.7-0.4,1.7-0.7,2.7c-0.2,0.8,0.4,1.4,1.2,1.4c1.4,0,2.5-1.5,2.5-3.7
	c0-1.9-1.4-3.3-3.3-3.3c-2.3,0-3.6,1.7-3.6,3.5c0,0.7,0.3,1.4,0.6,1.8C5,9.7,5,9.8,5,9.9c-0.1,0.3-0.2,0.8-0.2,0.9
	c0,0.1-0.1,0.2-0.3,0.1c-1-0.5-1.6-1.9-1.6-3.1C2.9,5.3,4.7,3,8.2,3c2.8,0,4.9,2,4.9,4.6c0,2.8-1.7,5-4.2,5c-0.8,0-1.6-0.4-1.8-0.9
	c0,0-0.4,1.5-0.5,1.9c-0.2,0.7-0.7,1.6-1,2.1C6.4,15.9,7.2,16,8,16c4.4,0,8-3.6,8-8C16,3.6,12.4,0,8,0z"/>
</g></symbol><symbol id="plane" viewBox="0 0 24 24"><g>
<path d="M1.423,11.048L4,13l9-4l-6.977,5.499v6.749c0,0.933,1.164,1.358,1.765,0.644l3.131-3.72l6.5,4.876
	c0.589,0.441,1.436,0.118,1.581-0.604l4.004-20c0.156-0.779-0.615-1.42-1.352-1.125l-20,8C0.928,9.609,0.799,10.58,1.423,11.048z"/>
</g></symbol><symbol id="search-btn" viewBox="0 0 24 24">
<g>
<path fill="#ffffff" d="M9,0C4.6,0,0,3.4,0,9c0,5.3,8,13.4,8.3,13.7C8.5,22.9,8.7,23,9,23s0.5-0.1,0.7-0.3C10,22.4,18,14.3,18,9
	C18,3.4,13.4,0,9,0z M9,12c-1.7,0-3-1.3-3-3s1.3-3,3-3s3,1.3,3,3S10.7,12,9,12z"/>
<path data-color="color-2" fill="#a4a4a4" d="M16,0c-0.2,0-0.4,0-0.6,0C18.1,1.9,20,5,20,9c0,3.4-2.5,7.5-4.9,10.5
	c0.1,0.1,0.2,0.2,0.2,0.2c0.2,0.2,0.4,0.3,0.7,0.3s0.5-0.1,0.7-0.3C17.4,19,24,12.6,24,8C24,3,19.9,0,16,0z"/>
</g>
</symbol><symbol id="search-menu" viewBox="0 0 24 24"><g transform="translate(0, 0)">
<line data-color="color-2" stroke-width="2" stroke-linecap="square" stroke-miterlimit="10" x1="22" y1="22" x2="16.4" y2="16.4" stroke-linejoin="miter"/>
<circle stroke-width="2" stroke-linecap="square" stroke-miterlimit="10" cx="10" cy="10" r="9" stroke-linejoin="miter"/>
</g></symbol><symbol id="search" viewBox="0 0 24 24"><g>
<path data-color="color-2" fill="#ffffff" d="M19.707,18.293c-0.391-0.391-1.023-0.391-1.414,0s-0.391,1.023,0,1.414l3,3C21.488,22.902,21.744,23,22,23
		s0.512-0.098,0.707-0.293c0.391-0.391,0.391-1.023,0-1.414L19.707,18.293z"/>
	<path fill="#ffffff" d="M10,0C4.486,0,0,4.486,0,10s4.486,10,10,10s10-4.486,10-10S15.514,0,10,0z M14,11h-3v3H9v-3H6V9h3V6h2v3h3
		V11z"/>
</g></symbol><symbol id="star" viewBox="0 0 24 24"><g transform="translate(0, 0)">
<polygon stroke-width="2" stroke-linecap="square" stroke-miterlimit="10" points="12,2.6 15,9 
	21.4,9 16.7,13.9 18.6,21.4 12,17.6 5.4,21.4 7.3,13.9 2.6,9 9,9 " stroke-linejoin="miter"/>
</g></symbol><symbol id="svg"><symbol id="close-icon" viewBox="0 0 24 24"><g transform="translate(0, 0)">
<line stroke-width="2" stroke-linecap="square" stroke-miterlimit="10" x1="19" y1="5" x2="5" y2="19" stroke-linejoin="miter"/>
<line stroke-width="2" stroke-linecap="square" stroke-miterlimit="10" x1="19" y1="19" x2="5" y2="5" stroke-linejoin="miter"/>
</g></symbol><symbol id="facebook" viewBox="0 0 16 16"><g><path fill="#f26324" d="M6.02293,16L6,9H3V6h3V4c0-2.6992,1.67151-4,4.07938-4c1.15339,0,2.14468,0.08587,2.43356,0.12425v2.82082
	l-1.66998,0.00076c-1.30953,0-1.56309,0.62227-1.56309,1.53541V6H13l-1,3H9.27986v7H6.02293z"/></g></symbol><symbol id="googleplus" viewBox="0 0 16 16"><g>
<path fill="#f26324" d="M8,7v2.4h4.1c-0.2,1-1.2,3-4,3c-2.4,0-4.3-2-4.3-4.4s2-4.4,4.3-4.4
	c1.4,0,2.3,0.6,2.8,1.1l1.9-1.8C11.6,1.7,10,1,8.1,1c-3.9,0-7,3.1-7,7s3.1,7,7,7c4,0,6.7-2.8,6.7-6.8c0-0.5,0-0.8-0.1-1.2H8L8,7z"/>
</g></symbol><symbol id="home" viewBox="0 0 24 24"><g>
<path d="M12,0.648L7,5.194V3H4v4.921L0.327,11.26l1.346,1.48L3,11.534V22c0,0.553,0.448,1,1,1h6v-6h4v6h6
	c0.552,0,1-0.447,1-1V11.534l1.327,1.207l1.346-1.48L12,0.648z M14,13h-4V9h4V13z"/>
</g></symbol><symbol id="info" viewBox="0 0 24 24"><g>
<path fill="#a4a4a4" d="M16,21h-3V9c0-0.6-0.4-1-1-1H8C7.4,8,7,8.4,7,9s0.4,1,1,1h3v11H8c-0.6,0-1,0.4-1,1s0.4,1,1,1h8
	c0.6,0,1-0.4,1-1S16.6,21,16,21z"/>
<circle data-color="color-2" fill="#a4a4a4" cx="12" cy="3" r="2"/>
</g></symbol><symbol id="instagram" viewBox="0 0 16 16"><g>
<path fill="#f26324" d="M14.1,0H1.9C0.9,0,0,0.8,0,1.9v12.2c0,1,0.9,1.9,1.9,1.9h12.2c1.1,0,1.9-0.8,1.9-1.9V1.9
	C16,0.8,15.1,0,14.1,0z M8,4.9c1.7,0,3.1,1.4,3.1,3.1c0,1.7-1.4,3.1-3.1,3.1c-1.7,0-3.1-1.4-3.1-3.1C4.9,6.3,6.3,4.9,8,4.9z
	 M14,13.3c0,0.4-0.3,0.7-0.7,0.7H2.7C2.3,14,2,13.7,2,13.3V6.7h1.3C3.1,7.4,3.1,8.3,3.3,9.1c0.4,1.9,1.9,3.3,3.8,3.7
	c3.1,0.6,5.8-1.8,5.8-4.8c0-0.4-0.1-0.9-0.2-1.4H14V13.3z M14,4h-2V2h2V4z"/>
</g></symbol><symbol id="linkedin" viewBox="0 0 16 16"><g>
<path fill="#f26324" d="M15.3,0H0.7C0.3,0,0,0.3,0,0.7v14.7C0,15.7,0.3,16,0.7,16h14.7c0.4,0,0.7-0.3,0.7-0.7V0.7
	C16,0.3,15.7,0,15.3,0z M4.7,13.6H2.4V6h2.4V13.6z M3.6,5C2.8,5,2.2,4.3,2.2,3.6c0-0.8,0.6-1.4,1.4-1.4c0.8,0,1.4,0.6,1.4,1.4
	C4.9,4.3,4.3,5,3.6,5z M13.6,13.6h-2.4V9.9c0-0.9,0-2-1.2-2c-1.2,0-1.4,1-1.4,2v3.8H6.2V6h2.3v1h0c0.3-0.6,1.1-1.2,2.2-1.2
	c2.4,0,2.8,1.6,2.8,3.6V13.6z"/>
</g></symbol><symbol id="menu-icon" viewBox="0 0 24 24"><g transform="translate(0, 0)">
<line data-color="color-2" stroke-width="2" stroke-linecap="square" stroke-miterlimit="10" x1="1" y1="12" x2="23" y2="12" stroke-linejoin="miter"/>
<line stroke-width="2" stroke-linecap="square" stroke-miterlimit="10" x1="1" y1="5" x2="23" y2="5" stroke-linejoin="miter"/>
<line stroke-width="2" stroke-linecap="square" stroke-miterlimit="10" x1="1" y1="19" x2="23" y2="19" stroke-linejoin="miter"/>
</g></symbol><symbol id="mobile" viewBox="0 0 24 24"><g>
<path d="M17,0H7C4.8,0,3,1.8,3,4v16c0,2.2,1.8,4,4,4h10c2.2,0,4-1.8,4-4V4C21,1.8,19.2,0,17,0z M6,5c0-0.6,0.4-1,1-1
	h10c0.6,0,1,0.4,1,1v10H6V5z M18,19c0,0.6-0.4,1-1,1H7c-0.6,0-1-0.4-1-1v-2h12V19z"/>
</g></symbol><symbol id="pinterest" viewBox="0 0 16 16"><g>
<path fill="#f26324" d="M8,0C3.6,0,0,3.6,0,8c0,3.4,2.1,6.3,5.1,7.4c-0.1-0.6-0.1-1.6,0-2.3c0.1-0.6,0.9-4,0.9-4S5.8,8.7,5.8,8
	C5.8,6.9,6.5,6,7.3,6c0.7,0,1,0.5,1,1.1c0,0.7-0.4,1.7-0.7,2.7c-0.2,0.8,0.4,1.4,1.2,1.4c1.4,0,2.5-1.5,2.5-3.7
	c0-1.9-1.4-3.3-3.3-3.3c-2.3,0-3.6,1.7-3.6,3.5c0,0.7,0.3,1.4,0.6,1.8C5,9.7,5,9.8,5,9.9c-0.1,0.3-0.2,0.8-0.2,0.9
	c0,0.1-0.1,0.2-0.3,0.1c-1-0.5-1.6-1.9-1.6-3.1C2.9,5.3,4.7,3,8.2,3c2.8,0,4.9,2,4.9,4.6c0,2.8-1.7,5-4.2,5c-0.8,0-1.6-0.4-1.8-0.9
	c0,0-0.4,1.5-0.5,1.9c-0.2,0.7-0.7,1.6-1,2.1C6.4,15.9,7.2,16,8,16c4.4,0,8-3.6,8-8C16,3.6,12.4,0,8,0z"/>
</g></symbol><symbol id="plane" viewBox="0 0 24 24"><g>
<path d="M1.423,11.048L4,13l9-4l-6.977,5.499v6.749c0,0.933,1.164,1.358,1.765,0.644l3.131-3.72l6.5,4.876
	c0.589,0.441,1.436,0.118,1.581-0.604l4.004-20c0.156-0.779-0.615-1.42-1.352-1.125l-20,8C0.928,9.609,0.799,10.58,1.423,11.048z"/>
</g></symbol><symbol id="search-btn" viewBox="0 0 24 24">
<g>
<path fill="#ffffff" d="M9,0C4.6,0,0,3.4,0,9c0,5.3,8,13.4,8.3,13.7C8.5,22.9,8.7,23,9,23s0.5-0.1,0.7-0.3C10,22.4,18,14.3,18,9
	C18,3.4,13.4,0,9,0z M9,12c-1.7,0-3-1.3-3-3s1.3-3,3-3s3,1.3,3,3S10.7,12,9,12z"/>
<path data-color="color-2" fill="#a4a4a4" d="M16,0c-0.2,0-0.4,0-0.6,0C18.1,1.9,20,5,20,9c0,3.4-2.5,7.5-4.9,10.5
	c0.1,0.1,0.2,0.2,0.2,0.2c0.2,0.2,0.4,0.3,0.7,0.3s0.5-0.1,0.7-0.3C17.4,19,24,12.6,24,8C24,3,19.9,0,16,0z"/>
</g>
</symbol><symbol id="search-menu" viewBox="0 0 24 24"><g transform="translate(0, 0)">
<line data-color="color-2" stroke-width="2" stroke-linecap="square" stroke-miterlimit="10" x1="22" y1="22" x2="16.4" y2="16.4" stroke-linejoin="miter"/>
<circle stroke-width="2" stroke-linecap="square" stroke-miterlimit="10" cx="10" cy="10" r="9" stroke-linejoin="miter"/>
</g></symbol><symbol id="search" viewBox="0 0 24 24"><g>
<path data-color="color-2" fill="#ffffff" d="M19.707,18.293c-0.391-0.391-1.023-0.391-1.414,0s-0.391,1.023,0,1.414l3,3C21.488,22.902,21.744,23,22,23
		s0.512-0.098,0.707-0.293c0.391-0.391,0.391-1.023,0-1.414L19.707,18.293z"/>
	<path fill="#ffffff" d="M10,0C4.486,0,0,4.486,0,10s4.486,10,10,10s10-4.486,10-10S15.514,0,10,0z M14,11h-3v3H9v-3H6V9h3V6h2v3h3
		V11z"/>
</g></symbol><symbol id="star" viewBox="0 0 24 24"><g transform="translate(0, 0)">
<polygon stroke-width="2" stroke-linecap="square" stroke-miterlimit="10" points="12,2.6 15,9 
	21.4,9 16.7,13.9 18.6,21.4 12,17.6 5.4,21.4 7.3,13.9 2.6,9 9,9 " stroke-linejoin="miter"/>
</g></symbol><symbol id="svg"><symbol id="facebook" viewBox="0 0 16 16"><g><path fill="#f26324" d="M6.02293,16L6,9H3V6h3V4c0-2.6992,1.67151-4,4.07938-4c1.15339,0,2.14468,0.08587,2.43356,0.12425v2.82082
	l-1.66998,0.00076c-1.30953,0-1.56309,0.62227-1.56309,1.53541V6H13l-1,3H9.27986v7H6.02293z"/></g></symbol><symbol id="googleplus" viewBox="0 0 16 16"><g>
<path fill="#f26324" d="M8,7v2.4h4.1c-0.2,1-1.2,3-4,3c-2.4,0-4.3-2-4.3-4.4s2-4.4,4.3-4.4
	c1.4,0,2.3,0.6,2.8,1.1l1.9-1.8C11.6,1.7,10,1,8.1,1c-3.9,0-7,3.1-7,7s3.1,7,7,7c4,0,6.7-2.8,6.7-6.8c0-0.5,0-0.8-0.1-1.2H8L8,7z"/>
</g></symbol><symbol id="home" viewBox="0 0 24 24"><g>
<path d="M12,0.648L7,5.194V3H4v4.921L0.327,11.26l1.346,1.48L3,11.534V22c0,0.553,0.448,1,1,1h6v-6h4v6h6
	c0.552,0,1-0.447,1-1V11.534l1.327,1.207l1.346-1.48L12,0.648z M14,13h-4V9h4V13z"/>
</g></symbol><symbol id="info" viewBox="0 0 24 24"><g>
<path fill="#a4a4a4" d="M16,21h-3V9c0-0.6-0.4-1-1-1H8C7.4,8,7,8.4,7,9s0.4,1,1,1h3v11H8c-0.6,0-1,0.4-1,1s0.4,1,1,1h8
	c0.6,0,1-0.4,1-1S16.6,21,16,21z"/>
<circle data-color="color-2" fill="#a4a4a4" cx="12" cy="3" r="2"/>
</g></symbol><symbol id="instagram" viewBox="0 0 16 16"><g>
<path fill="#f26324" d="M14.1,0H1.9C0.9,0,0,0.8,0,1.9v12.2c0,1,0.9,1.9,1.9,1.9h12.2c1.1,0,1.9-0.8,1.9-1.9V1.9
	C16,0.8,15.1,0,14.1,0z M8,4.9c1.7,0,3.1,1.4,3.1,3.1c0,1.7-1.4,3.1-3.1,3.1c-1.7,0-3.1-1.4-3.1-3.1C4.9,6.3,6.3,4.9,8,4.9z
	 M14,13.3c0,0.4-0.3,0.7-0.7,0.7H2.7C2.3,14,2,13.7,2,13.3V6.7h1.3C3.1,7.4,3.1,8.3,3.3,9.1c0.4,1.9,1.9,3.3,3.8,3.7
	c3.1,0.6,5.8-1.8,5.8-4.8c0-0.4-0.1-0.9-0.2-1.4H14V13.3z M14,4h-2V2h2V4z"/>
</g></symbol><symbol id="linkedin" viewBox="0 0 16 16"><g>
<path fill="#f26324" d="M15.3,0H0.7C0.3,0,0,0.3,0,0.7v14.7C0,15.7,0.3,16,0.7,16h14.7c0.4,0,0.7-0.3,0.7-0.7V0.7
	C16,0.3,15.7,0,15.3,0z M4.7,13.6H2.4V6h2.4V13.6z M3.6,5C2.8,5,2.2,4.3,2.2,3.6c0-0.8,0.6-1.4,1.4-1.4c0.8,0,1.4,0.6,1.4,1.4
	C4.9,4.3,4.3,5,3.6,5z M13.6,13.6h-2.4V9.9c0-0.9,0-2-1.2-2c-1.2,0-1.4,1-1.4,2v3.8H6.2V6h2.3v1h0c0.3-0.6,1.1-1.2,2.2-1.2
	c2.4,0,2.8,1.6,2.8,3.6V13.6z"/>
</g></symbol><symbol id="menu-icon" viewBox="0 0 24 24"><g transform="translate(0, 0)">
<line data-color="color-2" stroke-width="2" stroke-linecap="square" stroke-miterlimit="10" x1="1" y1="12" x2="23" y2="12" stroke-linejoin="miter"/>
<line stroke-width="2" stroke-linecap="square" stroke-miterlimit="10" x1="1" y1="5" x2="23" y2="5" stroke-linejoin="miter"/>
<line stroke-width="2" stroke-linecap="square" stroke-miterlimit="10" x1="1" y1="19" x2="23" y2="19" stroke-linejoin="miter"/>
</g></symbol><symbol id="mobile" viewBox="0 0 24 24"><g>
<path d="M17,0H7C4.8,0,3,1.8,3,4v16c0,2.2,1.8,4,4,4h10c2.2,0,4-1.8,4-4V4C21,1.8,19.2,0,17,0z M6,5c0-0.6,0.4-1,1-1
	h10c0.6,0,1,0.4,1,1v10H6V5z M18,19c0,0.6-0.4,1-1,1H7c-0.6,0-1-0.4-1-1v-2h12V19z"/>
</g></symbol><symbol id="pinterest" viewBox="0 0 16 16"><g>
<path fill="#f26324" d="M8,0C3.6,0,0,3.6,0,8c0,3.4,2.1,6.3,5.1,7.4c-0.1-0.6-0.1-1.6,0-2.3c0.1-0.6,0.9-4,0.9-4S5.8,8.7,5.8,8
	C5.8,6.9,6.5,6,7.3,6c0.7,0,1,0.5,1,1.1c0,0.7-0.4,1.7-0.7,2.7c-0.2,0.8,0.4,1.4,1.2,1.4c1.4,0,2.5-1.5,2.5-3.7
	c0-1.9-1.4-3.3-3.3-3.3c-2.3,0-3.6,1.7-3.6,3.5c0,0.7,0.3,1.4,0.6,1.8C5,9.7,5,9.8,5,9.9c-0.1,0.3-0.2,0.8-0.2,0.9
	c0,0.1-0.1,0.2-0.3,0.1c-1-0.5-1.6-1.9-1.6-3.1C2.9,5.3,4.7,3,8.2,3c2.8,0,4.9,2,4.9,4.6c0,2.8-1.7,5-4.2,5c-0.8,0-1.6-0.4-1.8-0.9
	c0,0-0.4,1.5-0.5,1.9c-0.2,0.7-0.7,1.6-1,2.1C6.4,15.9,7.2,16,8,16c4.4,0,8-3.6,8-8C16,3.6,12.4,0,8,0z"/>
</g></symbol><symbol id="plane" viewBox="0 0 24 24"><g>
<path d="M1.423,11.048L4,13l9-4l-6.977,5.499v6.749c0,0.933,1.164,1.358,1.765,0.644l3.131-3.72l6.5,4.876
	c0.589,0.441,1.436,0.118,1.581-0.604l4.004-20c0.156-0.779-0.615-1.42-1.352-1.125l-20,8C0.928,9.609,0.799,10.58,1.423,11.048z"/>
</g></symbol><symbol id="search-btn" viewBox="0 0 24 24">
<g>
<path fill="#ffffff" d="M9,0C4.6,0,0,3.4,0,9c0,5.3,8,13.4,8.3,13.7C8.5,22.9,8.7,23,9,23s0.5-0.1,0.7-0.3C10,22.4,18,14.3,18,9
	C18,3.4,13.4,0,9,0z M9,12c-1.7,0-3-1.3-3-3s1.3-3,3-3s3,1.3,3,3S10.7,12,9,12z"/>
<path data-color="color-2" fill="#a4a4a4" d="M16,0c-0.2,0-0.4,0-0.6,0C18.1,1.9,20,5,20,9c0,3.4-2.5,7.5-4.9,10.5
	c0.1,0.1,0.2,0.2,0.2,0.2c0.2,0.2,0.4,0.3,0.7,0.3s0.5-0.1,0.7-0.3C17.4,19,24,12.6,24,8C24,3,19.9,0,16,0z"/>
</g>
</symbol><symbol id="search-menu" viewBox="0 0 24 24"><g transform="translate(0, 0)">
<line data-color="color-2" stroke-width="2" stroke-linecap="square" stroke-miterlimit="10" x1="22" y1="22" x2="16.4" y2="16.4" stroke-linejoin="miter"/>
<circle stroke-width="2" stroke-linecap="square" stroke-miterlimit="10" cx="10" cy="10" r="9" stroke-linejoin="miter"/>
</g></symbol><symbol id="search" viewBox="0 0 24 24"><g>
<path data-color="color-2" fill="#ffffff" d="M19.707,18.293c-0.391-0.391-1.023-0.391-1.414,0s-0.391,1.023,0,1.414l3,3C21.488,22.902,21.744,23,22,23
		s0.512-0.098,0.707-0.293c0.391-0.391,0.391-1.023,0-1.414L19.707,18.293z"/>
	<path fill="#ffffff" d="M10,0C4.486,0,0,4.486,0,10s4.486,10,10,10s10-4.486,10-10S15.514,0,10,0z M14,11h-3v3H9v-3H6V9h3V6h2v3h3
		V11z"/>
</g></symbol><symbol id="star" viewBox="0 0 24 24"><g transform="translate(0, 0)">
<polygon stroke-width="2" stroke-linecap="square" stroke-miterlimit="10" points="12,2.6 15,9 
	21.4,9 16.7,13.9 18.6,21.4 12,17.6 5.4,21.4 7.3,13.9 2.6,9 9,9 " stroke-linejoin="miter"/>
</g></symbol><symbol id="svg"><symbol id="facebook" viewBox="0 0 16 16"><g><path fill="#f26324" d="M6.02293,16L6,9H3V6h3V4c0-2.6992,1.67151-4,4.07938-4c1.15339,0,2.14468,0.08587,2.43356,0.12425v2.82082
	l-1.66998,0.00076c-1.30953,0-1.56309,0.62227-1.56309,1.53541V6H13l-1,3H9.27986v7H6.02293z"/></g></symbol><symbol id="googleplus" viewBox="0 0 16 16"><g>
<path fill="#f26324" d="M8,7v2.4h4.1c-0.2,1-1.2,3-4,3c-2.4,0-4.3-2-4.3-4.4s2-4.4,4.3-4.4
	c1.4,0,2.3,0.6,2.8,1.1l1.9-1.8C11.6,1.7,10,1,8.1,1c-3.9,0-7,3.1-7,7s3.1,7,7,7c4,0,6.7-2.8,6.7-6.8c0-0.5,0-0.8-0.1-1.2H8L8,7z"/>
</g></symbol><symbol id="home" viewBox="0 0 24 24"><g>
<path d="M12,0.648L7,5.194V3H4v4.921L0.327,11.26l1.346,1.48L3,11.534V22c0,0.553,0.448,1,1,1h6v-6h4v6h6
	c0.552,0,1-0.447,1-1V11.534l1.327,1.207l1.346-1.48L12,0.648z M14,13h-4V9h4V13z"/>
</g></symbol><symbol id="info" viewBox="0 0 24 24"><g>
<path fill="#a4a4a4" d="M16,21h-3V9c0-0.6-0.4-1-1-1H8C7.4,8,7,8.4,7,9s0.4,1,1,1h3v11H8c-0.6,0-1,0.4-1,1s0.4,1,1,1h8
	c0.6,0,1-0.4,1-1S16.6,21,16,21z"/>
<circle data-color="color-2" fill="#a4a4a4" cx="12" cy="3" r="2"/>
</g></symbol><symbol id="instagram" viewBox="0 0 16 16"><g>
<path fill="#f26324" d="M14.1,0H1.9C0.9,0,0,0.8,0,1.9v12.2c0,1,0.9,1.9,1.9,1.9h12.2c1.1,0,1.9-0.8,1.9-1.9V1.9
	C16,0.8,15.1,0,14.1,0z M8,4.9c1.7,0,3.1,1.4,3.1,3.1c0,1.7-1.4,3.1-3.1,3.1c-1.7,0-3.1-1.4-3.1-3.1C4.9,6.3,6.3,4.9,8,4.9z
	 M14,13.3c0,0.4-0.3,0.7-0.7,0.7H2.7C2.3,14,2,13.7,2,13.3V6.7h1.3C3.1,7.4,3.1,8.3,3.3,9.1c0.4,1.9,1.9,3.3,3.8,3.7
	c3.1,0.6,5.8-1.8,5.8-4.8c0-0.4-0.1-0.9-0.2-1.4H14V13.3z M14,4h-2V2h2V4z"/>
</g></symbol><symbol id="linkedin" viewBox="0 0 16 16"><g>
<path fill="#f26324" d="M15.3,0H0.7C0.3,0,0,0.3,0,0.7v14.7C0,15.7,0.3,16,0.7,16h14.7c0.4,0,0.7-0.3,0.7-0.7V0.7
	C16,0.3,15.7,0,15.3,0z M4.7,13.6H2.4V6h2.4V13.6z M3.6,5C2.8,5,2.2,4.3,2.2,3.6c0-0.8,0.6-1.4,1.4-1.4c0.8,0,1.4,0.6,1.4,1.4
	C4.9,4.3,4.3,5,3.6,5z M13.6,13.6h-2.4V9.9c0-0.9,0-2-1.2-2c-1.2,0-1.4,1-1.4,2v3.8H6.2V6h2.3v1h0c0.3-0.6,1.1-1.2,2.2-1.2
	c2.4,0,2.8,1.6,2.8,3.6V13.6z"/>
</g></symbol><symbol id="menu-icon" viewBox="0 0 24 24"><g transform="translate(0, 0)">
<line data-color="color-2" fill="none" stroke="#a4a4a4" stroke-width="2" stroke-linecap="square" stroke-miterlimit="10" x1="1" y1="12" x2="23" y2="12" stroke-linejoin="miter"/>
<line fill="none" stroke="#a4a4a4" stroke-width="2" stroke-linecap="square" stroke-miterlimit="10" x1="1" y1="5" x2="23" y2="5" stroke-linejoin="miter"/>
<line fill="none" stroke="#a4a4a4" stroke-width="2" stroke-linecap="square" stroke-miterlimit="10" x1="1" y1="19" x2="23" y2="19" stroke-linejoin="miter"/>
</g></symbol><symbol id="mobile" viewBox="0 0 24 24"><g>
<path d="M17,0H7C4.8,0,3,1.8,3,4v16c0,2.2,1.8,4,4,4h10c2.2,0,4-1.8,4-4V4C21,1.8,19.2,0,17,0z M6,5c0-0.6,0.4-1,1-1
	h10c0.6,0,1,0.4,1,1v10H6V5z M18,19c0,0.6-0.4,1-1,1H7c-0.6,0-1-0.4-1-1v-2h12V19z"/>
</g></symbol><symbol id="pinterest" viewBox="0 0 16 16"><g>
<path fill="#f26324" d="M8,0C3.6,0,0,3.6,0,8c0,3.4,2.1,6.3,5.1,7.4c-0.1-0.6-0.1-1.6,0-2.3c0.1-0.6,0.9-4,0.9-4S5.8,8.7,5.8,8
	C5.8,6.9,6.5,6,7.3,6c0.7,0,1,0.5,1,1.1c0,0.7-0.4,1.7-0.7,2.7c-0.2,0.8,0.4,1.4,1.2,1.4c1.4,0,2.5-1.5,2.5-3.7
	c0-1.9-1.4-3.3-3.3-3.3c-2.3,0-3.6,1.7-3.6,3.5c0,0.7,0.3,1.4,0.6,1.8C5,9.7,5,9.8,5,9.9c-0.1,0.3-0.2,0.8-0.2,0.9
	c0,0.1-0.1,0.2-0.3,0.1c-1-0.5-1.6-1.9-1.6-3.1C2.9,5.3,4.7,3,8.2,3c2.8,0,4.9,2,4.9,4.6c0,2.8-1.7,5-4.2,5c-0.8,0-1.6-0.4-1.8-0.9
	c0,0-0.4,1.5-0.5,1.9c-0.2,0.7-0.7,1.6-1,2.1C6.4,15.9,7.2,16,8,16c4.4,0,8-3.6,8-8C16,3.6,12.4,0,8,0z"/>
</g></symbol><symbol id="plane" viewBox="0 0 24 24"><g>
<path d="M1.423,11.048L4,13l9-4l-6.977,5.499v6.749c0,0.933,1.164,1.358,1.765,0.644l3.131-3.72l6.5,4.876
	c0.589,0.441,1.436,0.118,1.581-0.604l4.004-20c0.156-0.779-0.615-1.42-1.352-1.125l-20,8C0.928,9.609,0.799,10.58,1.423,11.048z"/>
</g></symbol><symbol id="search-btn" viewBox="0 0 24 24">
<g>
<path fill="#ffffff" d="M9,0C4.6,0,0,3.4,0,9c0,5.3,8,13.4,8.3,13.7C8.5,22.9,8.7,23,9,23s0.5-0.1,0.7-0.3C10,22.4,18,14.3,18,9
	C18,3.4,13.4,0,9,0z M9,12c-1.7,0-3-1.3-3-3s1.3-3,3-3s3,1.3,3,3S10.7,12,9,12z"/>
<path data-color="color-2" fill="#a4a4a4" d="M16,0c-0.2,0-0.4,0-0.6,0C18.1,1.9,20,5,20,9c0,3.4-2.5,7.5-4.9,10.5
	c0.1,0.1,0.2,0.2,0.2,0.2c0.2,0.2,0.4,0.3,0.7,0.3s0.5-0.1,0.7-0.3C17.4,19,24,12.6,24,8C24,3,19.9,0,16,0z"/>
</g>
</symbol><symbol id="search-menu" viewBox="0 0 24 24"><g transform="translate(0, 0)">
<line data-color="color-2" stroke-width="2" stroke-linecap="square" stroke-miterlimit="10" x1="22" y1="22" x2="16.4" y2="16.4" stroke-linejoin="miter"/>
<circle stroke-width="2" stroke-linecap="square" stroke-miterlimit="10" cx="10" cy="10" r="9" stroke-linejoin="miter"/>
</g></symbol><symbol id="search" viewBox="0 0 24 24"><g>
<path data-color="color-2" fill="#ffffff" d="M19.707,18.293c-0.391-0.391-1.023-0.391-1.414,0s-0.391,1.023,0,1.414l3,3C21.488,22.902,21.744,23,22,23
		s0.512-0.098,0.707-0.293c0.391-0.391,0.391-1.023,0-1.414L19.707,18.293z"/>
	<path fill="#ffffff" d="M10,0C4.486,0,0,4.486,0,10s4.486,10,10,10s10-4.486,10-10S15.514,0,10,0z M14,11h-3v3H9v-3H6V9h3V6h2v3h3
		V11z"/>
</g></symbol><symbol id="star" viewBox="0 0 24 24"><g transform="translate(0, 0)">
<polygon fill="none" stroke="#a4a4a4" stroke-width="2" stroke-linecap="square" stroke-miterlimit="10" points="12,2.6 15,9 
	21.4,9 16.7,13.9 18.6,21.4 12,17.6 5.4,21.4 7.3,13.9 2.6,9 9,9 " stroke-linejoin="miter"/>
</g></symbol><symbol id="svg"><symbol id="facebook" viewBox="0 0 16 16"><g><path fill="#f26324" d="M6.02293,16L6,9H3V6h3V4c0-2.6992,1.67151-4,4.07938-4c1.15339,0,2.14468,0.08587,2.43356,0.12425v2.82082
	l-1.66998,0.00076c-1.30953,0-1.56309,0.62227-1.56309,1.53541V6H13l-1,3H9.27986v7H6.02293z"/></g></symbol><symbol id="googleplus" viewBox="0 0 16 16"><g>
<path fill="#f26324" d="M8,7v2.4h4.1c-0.2,1-1.2,3-4,3c-2.4,0-4.3-2-4.3-4.4s2-4.4,4.3-4.4
	c1.4,0,2.3,0.6,2.8,1.1l1.9-1.8C11.6,1.7,10,1,8.1,1c-3.9,0-7,3.1-7,7s3.1,7,7,7c4,0,6.7-2.8,6.7-6.8c0-0.5,0-0.8-0.1-1.2H8L8,7z"/>
</g></symbol><symbol id="home" viewBox="0 0 24 24"><g>
<path d="M12,0.648L7,5.194V3H4v4.921L0.327,11.26l1.346,1.48L3,11.534V22c0,0.553,0.448,1,1,1h6v-6h4v6h6
	c0.552,0,1-0.447,1-1V11.534l1.327,1.207l1.346-1.48L12,0.648z M14,13h-4V9h4V13z"/>
</g></symbol><symbol id="info" viewBox="0 0 24 24"><g>
<path fill="#a4a4a4" d="M16,21h-3V9c0-0.6-0.4-1-1-1H8C7.4,8,7,8.4,7,9s0.4,1,1,1h3v11H8c-0.6,0-1,0.4-1,1s0.4,1,1,1h8
	c0.6,0,1-0.4,1-1S16.6,21,16,21z"/>
<circle data-color="color-2" fill="#a4a4a4" cx="12" cy="3" r="2"/>
</g></symbol><symbol id="instagram" viewBox="0 0 16 16"><g>
<path fill="#f26324" d="M14.1,0H1.9C0.9,0,0,0.8,0,1.9v12.2c0,1,0.9,1.9,1.9,1.9h12.2c1.1,0,1.9-0.8,1.9-1.9V1.9
	C16,0.8,15.1,0,14.1,0z M8,4.9c1.7,0,3.1,1.4,3.1,3.1c0,1.7-1.4,3.1-3.1,3.1c-1.7,0-3.1-1.4-3.1-3.1C4.9,6.3,6.3,4.9,8,4.9z
	 M14,13.3c0,0.4-0.3,0.7-0.7,0.7H2.7C2.3,14,2,13.7,2,13.3V6.7h1.3C3.1,7.4,3.1,8.3,3.3,9.1c0.4,1.9,1.9,3.3,3.8,3.7
	c3.1,0.6,5.8-1.8,5.8-4.8c0-0.4-0.1-0.9-0.2-1.4H14V13.3z M14,4h-2V2h2V4z"/>
</g></symbol><symbol id="linkedin" viewBox="0 0 16 16"><g>
<path fill="#f26324" d="M15.3,0H0.7C0.3,0,0,0.3,0,0.7v14.7C0,15.7,0.3,16,0.7,16h14.7c0.4,0,0.7-0.3,0.7-0.7V0.7
	C16,0.3,15.7,0,15.3,0z M4.7,13.6H2.4V6h2.4V13.6z M3.6,5C2.8,5,2.2,4.3,2.2,3.6c0-0.8,0.6-1.4,1.4-1.4c0.8,0,1.4,0.6,1.4,1.4
	C4.9,4.3,4.3,5,3.6,5z M13.6,13.6h-2.4V9.9c0-0.9,0-2-1.2-2c-1.2,0-1.4,1-1.4,2v3.8H6.2V6h2.3v1h0c0.3-0.6,1.1-1.2,2.2-1.2
	c2.4,0,2.8,1.6,2.8,3.6V13.6z"/>
</g></symbol><symbol id="menu-icon" viewBox="0 0 24 24"><g transform="translate(0, 0)">
<line data-color="color-2" fill="none" stroke="#a4a4a4" stroke-width="2" stroke-linecap="square" stroke-miterlimit="10" x1="1" y1="12" x2="23" y2="12" stroke-linejoin="miter"/>
<line fill="none" stroke="#a4a4a4" stroke-width="2" stroke-linecap="square" stroke-miterlimit="10" x1="1" y1="5" x2="23" y2="5" stroke-linejoin="miter"/>
<line fill="none" stroke="#a4a4a4" stroke-width="2" stroke-linecap="square" stroke-miterlimit="10" x1="1" y1="19" x2="23" y2="19" stroke-linejoin="miter"/>
</g></symbol><symbol id="mobile" viewBox="0 0 24 24"><g>
<path d="M17,0H7C4.8,0,3,1.8,3,4v16c0,2.2,1.8,4,4,4h10c2.2,0,4-1.8,4-4V4C21,1.8,19.2,0,17,0z M6,5c0-0.6,0.4-1,1-1
	h10c0.6,0,1,0.4,1,1v10H6V5z M18,19c0,0.6-0.4,1-1,1H7c-0.6,0-1-0.4-1-1v-2h12V19z"/>
</g></symbol><symbol id="pinterest" viewBox="0 0 16 16"><g>
<path fill="#f26324" d="M8,0C3.6,0,0,3.6,0,8c0,3.4,2.1,6.3,5.1,7.4c-0.1-0.6-0.1-1.6,0-2.3c0.1-0.6,0.9-4,0.9-4S5.8,8.7,5.8,8
	C5.8,6.9,6.5,6,7.3,6c0.7,0,1,0.5,1,1.1c0,0.7-0.4,1.7-0.7,2.7c-0.2,0.8,0.4,1.4,1.2,1.4c1.4,0,2.5-1.5,2.5-3.7
	c0-1.9-1.4-3.3-3.3-3.3c-2.3,0-3.6,1.7-3.6,3.5c0,0.7,0.3,1.4,0.6,1.8C5,9.7,5,9.8,5,9.9c-0.1,0.3-0.2,0.8-0.2,0.9
	c0,0.1-0.1,0.2-0.3,0.1c-1-0.5-1.6-1.9-1.6-3.1C2.9,5.3,4.7,3,8.2,3c2.8,0,4.9,2,4.9,4.6c0,2.8-1.7,5-4.2,5c-0.8,0-1.6-0.4-1.8-0.9
	c0,0-0.4,1.5-0.5,1.9c-0.2,0.7-0.7,1.6-1,2.1C6.4,15.9,7.2,16,8,16c4.4,0,8-3.6,8-8C16,3.6,12.4,0,8,0z"/>
</g></symbol><symbol id="plane" viewBox="0 0 24 24"><g>
<path d="M1.423,11.048L4,13l9-4l-6.977,5.499v6.749c0,0.933,1.164,1.358,1.765,0.644l3.131-3.72l6.5,4.876
	c0.589,0.441,1.436,0.118,1.581-0.604l4.004-20c0.156-0.779-0.615-1.42-1.352-1.125l-20,8C0.928,9.609,0.799,10.58,1.423,11.048z"/>
</g></symbol><symbol id="search-btn" viewBox="0 0 24 24">
<g>
<path fill="#ffffff" d="M9,0C4.6,0,0,3.4,0,9c0,5.3,8,13.4,8.3,13.7C8.5,22.9,8.7,23,9,23s0.5-0.1,0.7-0.3C10,22.4,18,14.3,18,9
	C18,3.4,13.4,0,9,0z M9,12c-1.7,0-3-1.3-3-3s1.3-3,3-3s3,1.3,3,3S10.7,12,9,12z"/>
<path data-color="color-2" fill="#a4a4a4" d="M16,0c-0.2,0-0.4,0-0.6,0C18.1,1.9,20,5,20,9c0,3.4-2.5,7.5-4.9,10.5
	c0.1,0.1,0.2,0.2,0.2,0.2c0.2,0.2,0.4,0.3,0.7,0.3s0.5-0.1,0.7-0.3C17.4,19,24,12.6,24,8C24,3,19.9,0,16,0z"/>
</g>
</symbol><symbol id="search-menu" viewBox="0 0 24 24"><g transform="translate(0, 0)">
<line data-color="color-2" stroke-width="2" stroke-linecap="square" stroke-miterlimit="10" x1="22" y1="22" x2="16.4" y2="16.4" stroke-linejoin="miter"/>
<circle fill="none" stroke="#a4a4a4" stroke-width="2" stroke-linecap="square" stroke-miterlimit="10" cx="10" cy="10" r="9" stroke-linejoin="miter"/>
</g></symbol><symbol id="search" viewBox="0 0 24 24"><g>
<path data-color="color-2" fill="#ffffff" d="M19.707,18.293c-0.391-0.391-1.023-0.391-1.414,0s-0.391,1.023,0,1.414l3,3C21.488,22.902,21.744,23,22,23
		s0.512-0.098,0.707-0.293c0.391-0.391,0.391-1.023,0-1.414L19.707,18.293z"/>
	<path fill="#ffffff" d="M10,0C4.486,0,0,4.486,0,10s4.486,10,10,10s10-4.486,10-10S15.514,0,10,0z M14,11h-3v3H9v-3H6V9h3V6h2v3h3
		V11z"/>
</g></symbol><symbol id="star" viewBox="0 0 24 24"><g transform="translate(0, 0)">
<polygon fill="none" stroke="#a4a4a4" stroke-width="2" stroke-linecap="square" stroke-miterlimit="10" points="12,2.6 15,9 
	21.4,9 16.7,13.9 18.6,21.4 12,17.6 5.4,21.4 7.3,13.9 2.6,9 9,9 " stroke-linejoin="miter"/>
</g></symbol><symbol id="svg"><symbol id="facebook" viewBox="0 0 16 16"><g><path fill="#f26324" d="M6.02293,16L6,9H3V6h3V4c0-2.6992,1.67151-4,4.07938-4c1.15339,0,2.14468,0.08587,2.43356,0.12425v2.82082
	l-1.66998,0.00076c-1.30953,0-1.56309,0.62227-1.56309,1.53541V6H13l-1,3H9.27986v7H6.02293z"/></g></symbol><symbol id="googleplus" viewBox="0 0 16 16"><g>
<path fill="#f26324" d="M8,7v2.4h4.1c-0.2,1-1.2,3-4,3c-2.4,0-4.3-2-4.3-4.4s2-4.4,4.3-4.4
	c1.4,0,2.3,0.6,2.8,1.1l1.9-1.8C11.6,1.7,10,1,8.1,1c-3.9,0-7,3.1-7,7s3.1,7,7,7c4,0,6.7-2.8,6.7-6.8c0-0.5,0-0.8-0.1-1.2H8L8,7z"/>
</g></symbol><symbol id="home" viewBox="0 0 24 24"><g>
<path fill="#a4a4a4" d="M12,0.648L7,5.194V3H4v4.921L0.327,11.26l1.346,1.48L3,11.534V22c0,0.553,0.448,1,1,1h6v-6h4v6h6
	c0.552,0,1-0.447,1-1V11.534l1.327,1.207l1.346-1.48L12,0.648z M14,13h-4V9h4V13z"/>
</g></symbol><symbol id="info" viewBox="0 0 24 24"><g>
<path fill="#a4a4a4" d="M16,21h-3V9c0-0.6-0.4-1-1-1H8C7.4,8,7,8.4,7,9s0.4,1,1,1h3v11H8c-0.6,0-1,0.4-1,1s0.4,1,1,1h8
	c0.6,0,1-0.4,1-1S16.6,21,16,21z"/>
<circle data-color="color-2" fill="#a4a4a4" cx="12" cy="3" r="2"/>
</g></symbol><symbol id="instagram" viewBox="0 0 16 16"><g>
<path fill="#f26324" d="M14.1,0H1.9C0.9,0,0,0.8,0,1.9v12.2c0,1,0.9,1.9,1.9,1.9h12.2c1.1,0,1.9-0.8,1.9-1.9V1.9
	C16,0.8,15.1,0,14.1,0z M8,4.9c1.7,0,3.1,1.4,3.1,3.1c0,1.7-1.4,3.1-3.1,3.1c-1.7,0-3.1-1.4-3.1-3.1C4.9,6.3,6.3,4.9,8,4.9z
	 M14,13.3c0,0.4-0.3,0.7-0.7,0.7H2.7C2.3,14,2,13.7,2,13.3V6.7h1.3C3.1,7.4,3.1,8.3,3.3,9.1c0.4,1.9,1.9,3.3,3.8,3.7
	c3.1,0.6,5.8-1.8,5.8-4.8c0-0.4-0.1-0.9-0.2-1.4H14V13.3z M14,4h-2V2h2V4z"/>
</g></symbol><symbol id="linkedin" viewBox="0 0 16 16"><g>
<path fill="#f26324" d="M15.3,0H0.7C0.3,0,0,0.3,0,0.7v14.7C0,15.7,0.3,16,0.7,16h14.7c0.4,0,0.7-0.3,0.7-0.7V0.7
	C16,0.3,15.7,0,15.3,0z M4.7,13.6H2.4V6h2.4V13.6z M3.6,5C2.8,5,2.2,4.3,2.2,3.6c0-0.8,0.6-1.4,1.4-1.4c0.8,0,1.4,0.6,1.4,1.4
	C4.9,4.3,4.3,5,3.6,5z M13.6,13.6h-2.4V9.9c0-0.9,0-2-1.2-2c-1.2,0-1.4,1-1.4,2v3.8H6.2V6h2.3v1h0c0.3-0.6,1.1-1.2,2.2-1.2
	c2.4,0,2.8,1.6,2.8,3.6V13.6z"/>
</g></symbol><symbol id="menu-icon" viewBox="0 0 24 24"><g transform="translate(0, 0)">
<line data-color="color-2" fill="none" stroke="#a4a4a4" stroke-width="2" stroke-linecap="square" stroke-miterlimit="10" x1="1" y1="12" x2="23" y2="12" stroke-linejoin="miter"/>
<line fill="none" stroke="#a4a4a4" stroke-width="2" stroke-linecap="square" stroke-miterlimit="10" x1="1" y1="5" x2="23" y2="5" stroke-linejoin="miter"/>
<line fill="none" stroke="#a4a4a4" stroke-width="2" stroke-linecap="square" stroke-miterlimit="10" x1="1" y1="19" x2="23" y2="19" stroke-linejoin="miter"/>
</g></symbol><symbol id="mobile" viewBox="0 0 24 24"><g>
<path fill="#a4a4a4" d="M17,0H7C4.8,0,3,1.8,3,4v16c0,2.2,1.8,4,4,4h10c2.2,0,4-1.8,4-4V4C21,1.8,19.2,0,17,0z M6,5c0-0.6,0.4-1,1-1
	h10c0.6,0,1,0.4,1,1v10H6V5z M18,19c0,0.6-0.4,1-1,1H7c-0.6,0-1-0.4-1-1v-2h12V19z"/>
</g></symbol><symbol id="pinterest" viewBox="0 0 16 16"><g>
<path fill="#f26324" d="M8,0C3.6,0,0,3.6,0,8c0,3.4,2.1,6.3,5.1,7.4c-0.1-0.6-0.1-1.6,0-2.3c0.1-0.6,0.9-4,0.9-4S5.8,8.7,5.8,8
	C5.8,6.9,6.5,6,7.3,6c0.7,0,1,0.5,1,1.1c0,0.7-0.4,1.7-0.7,2.7c-0.2,0.8,0.4,1.4,1.2,1.4c1.4,0,2.5-1.5,2.5-3.7
	c0-1.9-1.4-3.3-3.3-3.3c-2.3,0-3.6,1.7-3.6,3.5c0,0.7,0.3,1.4,0.6,1.8C5,9.7,5,9.8,5,9.9c-0.1,0.3-0.2,0.8-0.2,0.9
	c0,0.1-0.1,0.2-0.3,0.1c-1-0.5-1.6-1.9-1.6-3.1C2.9,5.3,4.7,3,8.2,3c2.8,0,4.9,2,4.9,4.6c0,2.8-1.7,5-4.2,5c-0.8,0-1.6-0.4-1.8-0.9
	c0,0-0.4,1.5-0.5,1.9c-0.2,0.7-0.7,1.6-1,2.1C6.4,15.9,7.2,16,8,16c4.4,0,8-3.6,8-8C16,3.6,12.4,0,8,0z"/>
</g></symbol><symbol id="plane" viewBox="0 0 24 24"><g>
<path fill="#a4a4a4" d="M1.423,11.048L4,13l9-4l-6.977,5.499v6.749c0,0.933,1.164,1.358,1.765,0.644l3.131-3.72l6.5,4.876
	c0.589,0.441,1.436,0.118,1.581-0.604l4.004-20c0.156-0.779-0.615-1.42-1.352-1.125l-20,8C0.928,9.609,0.799,10.58,1.423,11.048z"/>
</g></symbol><symbol id="search-btn" viewBox="0 0 24 24">
<g>
<path fill="#ffffff" d="M9,0C4.6,0,0,3.4,0,9c0,5.3,8,13.4,8.3,13.7C8.5,22.9,8.7,23,9,23s0.5-0.1,0.7-0.3C10,22.4,18,14.3,18,9
	C18,3.4,13.4,0,9,0z M9,12c-1.7,0-3-1.3-3-3s1.3-3,3-3s3,1.3,3,3S10.7,12,9,12z"/>
<path data-color="color-2" fill="#a4a4a4" d="M16,0c-0.2,0-0.4,0-0.6,0C18.1,1.9,20,5,20,9c0,3.4-2.5,7.5-4.9,10.5
	c0.1,0.1,0.2,0.2,0.2,0.2c0.2,0.2,0.4,0.3,0.7,0.3s0.5-0.1,0.7-0.3C17.4,19,24,12.6,24,8C24,3,19.9,0,16,0z"/>
</g>
</symbol><symbol id="search-menu" viewBox="0 0 24 24"><g transform="translate(0, 0)">
<line data-color="color-2" fill="none" stroke="#a4a4a4" stroke-width="2" stroke-linecap="square" stroke-miterlimit="10" x1="22" y1="22" x2="16.4" y2="16.4" stroke-linejoin="miter"/>
<circle fill="none" stroke="#a4a4a4" stroke-width="2" stroke-linecap="square" stroke-miterlimit="10" cx="10" cy="10" r="9" stroke-linejoin="miter"/>
</g></symbol><symbol id="search" viewBox="0 0 24 24"><g>
<path data-color="color-2" fill="#ffffff" d="M19.707,18.293c-0.391-0.391-1.023-0.391-1.414,0s-0.391,1.023,0,1.414l3,3C21.488,22.902,21.744,23,22,23
		s0.512-0.098,0.707-0.293c0.391-0.391,0.391-1.023,0-1.414L19.707,18.293z"/>
	<path fill="#ffffff" d="M10,0C4.486,0,0,4.486,0,10s4.486,10,10,10s10-4.486,10-10S15.514,0,10,0z M14,11h-3v3H9v-3H6V9h3V6h2v3h3
		V11z"/>
</g></symbol><symbol id="star" viewBox="0 0 24 24"><g transform="translate(0, 0)">
<polygon fill="none" stroke="#a4a4a4" stroke-width="2" stroke-linecap="square" stroke-miterlimit="10" points="12,2.6 15,9 
	21.4,9 16.7,13.9 18.6,21.4 12,17.6 5.4,21.4 7.3,13.9 2.6,9 9,9 " stroke-linejoin="miter"/>
</g></symbol><symbol id="svg"><symbol id="facebook" viewBox="0 0 16 16"><g><path fill="#f26324" d="M6.02293,16L6,9H3V6h3V4c0-2.6992,1.67151-4,4.07938-4c1.15339,0,2.14468,0.08587,2.43356,0.12425v2.82082
	l-1.66998,0.00076c-1.30953,0-1.56309,0.62227-1.56309,1.53541V6H13l-1,3H9.27986v7H6.02293z"/></g></symbol><symbol id="googleplus" viewBox="0 0 16 16"><g>
<path fill="#f26324" d="M8,7v2.4h4.1c-0.2,1-1.2,3-4,3c-2.4,0-4.3-2-4.3-4.4s2-4.4,4.3-4.4
	c1.4,0,2.3,0.6,2.8,1.1l1.9-1.8C11.6,1.7,10,1,8.1,1c-3.9,0-7,3.1-7,7s3.1,7,7,7c4,0,6.7-2.8,6.7-6.8c0-0.5,0-0.8-0.1-1.2H8L8,7z"/>
</g></symbol><symbol id="home" viewBox="0 0 24 24"><g>
<path fill="#a4a4a4" d="M12,0.648L7,5.194V3H4v4.921L0.327,11.26l1.346,1.48L3,11.534V22c0,0.553,0.448,1,1,1h6v-6h4v6h6
	c0.552,0,1-0.447,1-1V11.534l1.327,1.207l1.346-1.48L12,0.648z M14,13h-4V9h4V13z"/>
</g></symbol><symbol id="info" viewBox="0 0 24 24"><g>
<path fill="#a4a4a4" d="M16,21h-3V9c0-0.6-0.4-1-1-1H8C7.4,8,7,8.4,7,9s0.4,1,1,1h3v11H8c-0.6,0-1,0.4-1,1s0.4,1,1,1h8
	c0.6,0,1-0.4,1-1S16.6,21,16,21z"/>
<circle data-color="color-2" fill="#a4a4a4" cx="12" cy="3" r="2"/>
</g></symbol><symbol id="instagram" viewBox="0 0 16 16"><g>
<path fill="#f26324" d="M14.1,0H1.9C0.9,0,0,0.8,0,1.9v12.2c0,1,0.9,1.9,1.9,1.9h12.2c1.1,0,1.9-0.8,1.9-1.9V1.9
	C16,0.8,15.1,0,14.1,0z M8,4.9c1.7,0,3.1,1.4,3.1,3.1c0,1.7-1.4,3.1-3.1,3.1c-1.7,0-3.1-1.4-3.1-3.1C4.9,6.3,6.3,4.9,8,4.9z
	 M14,13.3c0,0.4-0.3,0.7-0.7,0.7H2.7C2.3,14,2,13.7,2,13.3V6.7h1.3C3.1,7.4,3.1,8.3,3.3,9.1c0.4,1.9,1.9,3.3,3.8,3.7
	c3.1,0.6,5.8-1.8,5.8-4.8c0-0.4-0.1-0.9-0.2-1.4H14V13.3z M14,4h-2V2h2V4z"/>
</g></symbol><symbol id="linkedin" viewBox="0 0 16 16"><g>
<path fill="#f26324" d="M15.3,0H0.7C0.3,0,0,0.3,0,0.7v14.7C0,15.7,0.3,16,0.7,16h14.7c0.4,0,0.7-0.3,0.7-0.7V0.7
	C16,0.3,15.7,0,15.3,0z M4.7,13.6H2.4V6h2.4V13.6z M3.6,5C2.8,5,2.2,4.3,2.2,3.6c0-0.8,0.6-1.4,1.4-1.4c0.8,0,1.4,0.6,1.4,1.4
	C4.9,4.3,4.3,5,3.6,5z M13.6,13.6h-2.4V9.9c0-0.9,0-2-1.2-2c-1.2,0-1.4,1-1.4,2v3.8H6.2V6h2.3v1h0c0.3-0.6,1.1-1.2,2.2-1.2
	c2.4,0,2.8,1.6,2.8,3.6V13.6z"/>
</g></symbol><symbol id="mobile" viewBox="0 0 24 24"><g>
<path fill="#a4a4a4" d="M17,0H7C4.8,0,3,1.8,3,4v16c0,2.2,1.8,4,4,4h10c2.2,0,4-1.8,4-4V4C21,1.8,19.2,0,17,0z M6,5c0-0.6,0.4-1,1-1
	h10c0.6,0,1,0.4,1,1v10H6V5z M18,19c0,0.6-0.4,1-1,1H7c-0.6,0-1-0.4-1-1v-2h12V19z"/>
</g></symbol><symbol id="pinterest" viewBox="0 0 16 16"><g>
<path fill="#f26324" d="M8,0C3.6,0,0,3.6,0,8c0,3.4,2.1,6.3,5.1,7.4c-0.1-0.6-0.1-1.6,0-2.3c0.1-0.6,0.9-4,0.9-4S5.8,8.7,5.8,8
	C5.8,6.9,6.5,6,7.3,6c0.7,0,1,0.5,1,1.1c0,0.7-0.4,1.7-0.7,2.7c-0.2,0.8,0.4,1.4,1.2,1.4c1.4,0,2.5-1.5,2.5-3.7
	c0-1.9-1.4-3.3-3.3-3.3c-2.3,0-3.6,1.7-3.6,3.5c0,0.7,0.3,1.4,0.6,1.8C5,9.7,5,9.8,5,9.9c-0.1,0.3-0.2,0.8-0.2,0.9
	c0,0.1-0.1,0.2-0.3,0.1c-1-0.5-1.6-1.9-1.6-3.1C2.9,5.3,4.7,3,8.2,3c2.8,0,4.9,2,4.9,4.6c0,2.8-1.7,5-4.2,5c-0.8,0-1.6-0.4-1.8-0.9
	c0,0-0.4,1.5-0.5,1.9c-0.2,0.7-0.7,1.6-1,2.1C6.4,15.9,7.2,16,8,16c4.4,0,8-3.6,8-8C16,3.6,12.4,0,8,0z"/>
</g></symbol><symbol id="plane" viewBox="0 0 24 24"><g>
<path fill="#a4a4a4" d="M1.423,11.048L4,13l9-4l-6.977,5.499v6.749c0,0.933,1.164,1.358,1.765,0.644l3.131-3.72l6.5,4.876
	c0.589,0.441,1.436,0.118,1.581-0.604l4.004-20c0.156-0.779-0.615-1.42-1.352-1.125l-20,8C0.928,9.609,0.799,10.58,1.423,11.048z"/>
</g></symbol><symbol id="search-btn" viewBox="0 0 24 24">
<g>
<path fill="#ffffff" d="M9,0C4.6,0,0,3.4,0,9c0,5.3,8,13.4,8.3,13.7C8.5,22.9,8.7,23,9,23s0.5-0.1,0.7-0.3C10,22.4,18,14.3,18,9
	C18,3.4,13.4,0,9,0z M9,12c-1.7,0-3-1.3-3-3s1.3-3,3-3s3,1.3,3,3S10.7,12,9,12z"/>
<path data-color="color-2" fill="#a4a4a4" d="M16,0c-0.2,0-0.4,0-0.6,0C18.1,1.9,20,5,20,9c0,3.4-2.5,7.5-4.9,10.5
	c0.1,0.1,0.2,0.2,0.2,0.2c0.2,0.2,0.4,0.3,0.7,0.3s0.5-0.1,0.7-0.3C17.4,19,24,12.6,24,8C24,3,19.9,0,16,0z"/>
</g>
</symbol><symbol id="search" viewBox="0 0 24 24"><g>
<path data-color="color-2" fill="#ffffff" d="M19.707,18.293c-0.391-0.391-1.023-0.391-1.414,0s-0.391,1.023,0,1.414l3,3C21.488,22.902,21.744,23,22,23
		s0.512-0.098,0.707-0.293c0.391-0.391,0.391-1.023,0-1.414L19.707,18.293z"/>
	<path fill="#a4a4a4" d="M10,0C4.486,0,0,4.486,0,10s4.486,10,10,10s10-4.486,10-10S15.514,0,10,0z M14,11h-3v3H9v-3H6V9h3V6h2v3h3
		V11z"/>
</g></symbol><symbol id="star" viewBox="0 0 24 24"><g transform="translate(0, 0)">
<polygon fill="none" stroke="#a4a4a4" stroke-width="2" stroke-linecap="square" stroke-miterlimit="10" points="12,2.6 15,9 
	21.4,9 16.7,13.9 18.6,21.4 12,17.6 5.4,21.4 7.3,13.9 2.6,9 9,9 " stroke-linejoin="miter"/>
</g></symbol><symbol id="svg"><symbol id="facebook" viewBox="0 0 16 16"><g><path fill="#f26324" d="M6.02293,16L6,9H3V6h3V4c0-2.6992,1.67151-4,4.07938-4c1.15339,0,2.14468,0.08587,2.43356,0.12425v2.82082
	l-1.66998,0.00076c-1.30953,0-1.56309,0.62227-1.56309,1.53541V6H13l-1,3H9.27986v7H6.02293z"/></g></symbol><symbol id="googleplus" viewBox="0 0 16 16"><g>
<path fill="#f26324" d="M8,7v2.4h4.1c-0.2,1-1.2,3-4,3c-2.4,0-4.3-2-4.3-4.4s2-4.4,4.3-4.4
	c1.4,0,2.3,0.6,2.8,1.1l1.9-1.8C11.6,1.7,10,1,8.1,1c-3.9,0-7,3.1-7,7s3.1,7,7,7c4,0,6.7-2.8,6.7-6.8c0-0.5,0-0.8-0.1-1.2H8L8,7z"/>
</g></symbol><symbol id="home" viewBox="0 0 24 24"><g>
<path fill="#a4a4a4" d="M12,0.648L7,5.194V3H4v4.921L0.327,11.26l1.346,1.48L3,11.534V22c0,0.553,0.448,1,1,1h6v-6h4v6h6
	c0.552,0,1-0.447,1-1V11.534l1.327,1.207l1.346-1.48L12,0.648z M14,13h-4V9h4V13z"/>
</g></symbol><symbol id="info" viewBox="0 0 24 24"><g>
<path fill="#a4a4a4" d="M16,21h-3V9c0-0.6-0.4-1-1-1H8C7.4,8,7,8.4,7,9s0.4,1,1,1h3v11H8c-0.6,0-1,0.4-1,1s0.4,1,1,1h8
	c0.6,0,1-0.4,1-1S16.6,21,16,21z"/>
<circle data-color="color-2" fill="#a4a4a4" cx="12" cy="3" r="2"/>
</g></symbol><symbol id="instagram" viewBox="0 0 16 16"><g>
<path fill="#f26324" d="M14.1,0H1.9C0.9,0,0,0.8,0,1.9v12.2c0,1,0.9,1.9,1.9,1.9h12.2c1.1,0,1.9-0.8,1.9-1.9V1.9
	C16,0.8,15.1,0,14.1,0z M8,4.9c1.7,0,3.1,1.4,3.1,3.1c0,1.7-1.4,3.1-3.1,3.1c-1.7,0-3.1-1.4-3.1-3.1C4.9,6.3,6.3,4.9,8,4.9z
	 M14,13.3c0,0.4-0.3,0.7-0.7,0.7H2.7C2.3,14,2,13.7,2,13.3V6.7h1.3C3.1,7.4,3.1,8.3,3.3,9.1c0.4,1.9,1.9,3.3,3.8,3.7
	c3.1,0.6,5.8-1.8,5.8-4.8c0-0.4-0.1-0.9-0.2-1.4H14V13.3z M14,4h-2V2h2V4z"/>
</g></symbol><symbol id="linkedin" viewBox="0 0 16 16"><g>
<path fill="#f26324" d="M15.3,0H0.7C0.3,0,0,0.3,0,0.7v14.7C0,15.7,0.3,16,0.7,16h14.7c0.4,0,0.7-0.3,0.7-0.7V0.7
	C16,0.3,15.7,0,15.3,0z M4.7,13.6H2.4V6h2.4V13.6z M3.6,5C2.8,5,2.2,4.3,2.2,3.6c0-0.8,0.6-1.4,1.4-1.4c0.8,0,1.4,0.6,1.4,1.4
	C4.9,4.3,4.3,5,3.6,5z M13.6,13.6h-2.4V9.9c0-0.9,0-2-1.2-2c-1.2,0-1.4,1-1.4,2v3.8H6.2V6h2.3v1h0c0.3-0.6,1.1-1.2,2.2-1.2
	c2.4,0,2.8,1.6,2.8,3.6V13.6z"/>
</g></symbol><symbol id="mobile" viewBox="0 0 24 24"><g>
<path fill="#a4a4a4" d="M17,0H7C4.8,0,3,1.8,3,4v16c0,2.2,1.8,4,4,4h10c2.2,0,4-1.8,4-4V4C21,1.8,19.2,0,17,0z M6,5c0-0.6,0.4-1,1-1
	h10c0.6,0,1,0.4,1,1v10H6V5z M18,19c0,0.6-0.4,1-1,1H7c-0.6,0-1-0.4-1-1v-2h12V19z"/>
</g></symbol><symbol id="pinterest" viewBox="0 0 16 16"><g>
<path fill="#f26324" d="M8,0C3.6,0,0,3.6,0,8c0,3.4,2.1,6.3,5.1,7.4c-0.1-0.6-0.1-1.6,0-2.3c0.1-0.6,0.9-4,0.9-4S5.8,8.7,5.8,8
	C5.8,6.9,6.5,6,7.3,6c0.7,0,1,0.5,1,1.1c0,0.7-0.4,1.7-0.7,2.7c-0.2,0.8,0.4,1.4,1.2,1.4c1.4,0,2.5-1.5,2.5-3.7
	c0-1.9-1.4-3.3-3.3-3.3c-2.3,0-3.6,1.7-3.6,3.5c0,0.7,0.3,1.4,0.6,1.8C5,9.7,5,9.8,5,9.9c-0.1,0.3-0.2,0.8-0.2,0.9
	c0,0.1-0.1,0.2-0.3,0.1c-1-0.5-1.6-1.9-1.6-3.1C2.9,5.3,4.7,3,8.2,3c2.8,0,4.9,2,4.9,4.6c0,2.8-1.7,5-4.2,5c-0.8,0-1.6-0.4-1.8-0.9
	c0,0-0.4,1.5-0.5,1.9c-0.2,0.7-0.7,1.6-1,2.1C6.4,15.9,7.2,16,8,16c4.4,0,8-3.6,8-8C16,3.6,12.4,0,8,0z"/>
</g></symbol><symbol id="plane" viewBox="0 0 24 24"><g>
<path fill="#ffffff" d="M1.423,11.048L4,13l9-4l-6.977,5.499v6.749c0,0.933,1.164,1.358,1.765,0.644l3.131-3.72l6.5,4.876
	c0.589,0.441,1.436,0.118,1.581-0.604l4.004-20c0.156-0.779-0.615-1.42-1.352-1.125l-20,8C0.928,9.609,0.799,10.58,1.423,11.048z"/>
</g></symbol><symbol id="search-btn" viewBox="0 0 24 24">
<g>
<path fill="#ffffff" d="M9,0C4.6,0,0,3.4,0,9c0,5.3,8,13.4,8.3,13.7C8.5,22.9,8.7,23,9,23s0.5-0.1,0.7-0.3C10,22.4,18,14.3,18,9
	C18,3.4,13.4,0,9,0z M9,12c-1.7,0-3-1.3-3-3s1.3-3,3-3s3,1.3,3,3S10.7,12,9,12z"/>
<path data-color="color-2" fill="#a4a4a4" d="M16,0c-0.2,0-0.4,0-0.6,0C18.1,1.9,20,5,20,9c0,3.4-2.5,7.5-4.9,10.5
	c0.1,0.1,0.2,0.2,0.2,0.2c0.2,0.2,0.4,0.3,0.7,0.3s0.5-0.1,0.7-0.3C17.4,19,24,12.6,24,8C24,3,19.9,0,16,0z"/>
</g>
</symbol><symbol id="search" viewBox="0 0 24 24"><g>
<path data-color="color-2" fill="#ffffff" d="M19.707,18.293c-0.391-0.391-1.023-0.391-1.414,0s-0.391,1.023,0,1.414l3,3C21.488,22.902,21.744,23,22,23
		s0.512-0.098,0.707-0.293c0.391-0.391,0.391-1.023,0-1.414L19.707,18.293z"/>
	<path fill="#a4a4a4" d="M10,0C4.486,0,0,4.486,0,10s4.486,10,10,10s10-4.486,10-10S15.514,0,10,0z M14,11h-3v3H9v-3H6V9h3V6h2v3h3
		V11z"/>
</g></symbol><symbol id="star" viewBox="0 0 24 24"><g transform="translate(0, 0)">
<polygon fill="none" stroke="#a4a4a4" stroke-width="2" stroke-linecap="square" stroke-miterlimit="10" points="12,2.6 15,9
	21.4,9 16.7,13.9 18.6,21.4 12,17.6 5.4,21.4 7.3,13.9 2.6,9 9,9 " stroke-linejoin="miter"/>
</g></symbol><symbol id="svg"><symbol id="facebook" viewBox="0 0 16 16"><g><path fill="#f26324" d="M6.02293,16L6,9H3V6h3V4c0-2.6992,1.67151-4,4.07938-4c1.15339,0,2.14468,0.08587,2.43356,0.12425v2.82082
	l-1.66998,0.00076c-1.30953,0-1.56309,0.62227-1.56309,1.53541V6H13l-1,3H9.27986v7H6.02293z"/></g></symbol><symbol id="googleplus" viewBox="0 0 16 16"><g>
<path fill="#f26324" d="M8,7v2.4h4.1c-0.2,1-1.2,3-4,3c-2.4,0-4.3-2-4.3-4.4s2-4.4,4.3-4.4
	c1.4,0,2.3,0.6,2.8,1.1l1.9-1.8C11.6,1.7,10,1,8.1,1c-3.9,0-7,3.1-7,7s3.1,7,7,7c4,0,6.7-2.8,6.7-6.8c0-0.5,0-0.8-0.1-1.2H8L8,7z"/>
</g></symbol><symbol id="instagram" viewBox="0 0 16 16"><g>
<path fill="#f26324" d="M14.1,0H1.9C0.9,0,0,0.8,0,1.9v12.2c0,1,0.9,1.9,1.9,1.9h12.2c1.1,0,1.9-0.8,1.9-1.9V1.9
	C16,0.8,15.1,0,14.1,0z M8,4.9c1.7,0,3.1,1.4,3.1,3.1c0,1.7-1.4,3.1-3.1,3.1c-1.7,0-3.1-1.4-3.1-3.1C4.9,6.3,6.3,4.9,8,4.9z
	 M14,13.3c0,0.4-0.3,0.7-0.7,0.7H2.7C2.3,14,2,13.7,2,13.3V6.7h1.3C3.1,7.4,3.1,8.3,3.3,9.1c0.4,1.9,1.9,3.3,3.8,3.7
	c3.1,0.6,5.8-1.8,5.8-4.8c0-0.4-0.1-0.9-0.2-1.4H14V13.3z M14,4h-2V2h2V4z"/>
</g></symbol><symbol id="linkedin" viewBox="0 0 16 16"><g>
<path fill="#f26324" d="M15.3,0H0.7C0.3,0,0,0.3,0,0.7v14.7C0,15.7,0.3,16,0.7,16h14.7c0.4,0,0.7-0.3,0.7-0.7V0.7
	C16,0.3,15.7,0,15.3,0z M4.7,13.6H2.4V6h2.4V13.6z M3.6,5C2.8,5,2.2,4.3,2.2,3.6c0-0.8,0.6-1.4,1.4-1.4c0.8,0,1.4,0.6,1.4,1.4
	C4.9,4.3,4.3,5,3.6,5z M13.6,13.6h-2.4V9.9c0-0.9,0-2-1.2-2c-1.2,0-1.4,1-1.4,2v3.8H6.2V6h2.3v1h0c0.3-0.6,1.1-1.2,2.2-1.2
	c2.4,0,2.8,1.6,2.8,3.6V13.6z"/>
</g></symbol><symbol id="mobile" viewBox="0 0 24 24"><g>
<path fill="#a4a4a4" d="M17,0H7C4.8,0,3,1.8,3,4v16c0,2.2,1.8,4,4,4h10c2.2,0,4-1.8,4-4V4C21,1.8,19.2,0,17,0z M6,5c0-0.6,0.4-1,1-1
	h10c0.6,0,1,0.4,1,1v10H6V5z M18,19c0,0.6-0.4,1-1,1H7c-0.6,0-1-0.4-1-1v-2h12V19z"/>
</g></symbol><symbol id="pinterest" viewBox="0 0 16 16"><g>
<path fill="#f26324" d="M8,0C3.6,0,0,3.6,0,8c0,3.4,2.1,6.3,5.1,7.4c-0.1-0.6-0.1-1.6,0-2.3c0.1-0.6,0.9-4,0.9-4S5.8,8.7,5.8,8
	C5.8,6.9,6.5,6,7.3,6c0.7,0,1,0.5,1,1.1c0,0.7-0.4,1.7-0.7,2.7c-0.2,0.8,0.4,1.4,1.2,1.4c1.4,0,2.5-1.5,2.5-3.7
	c0-1.9-1.4-3.3-3.3-3.3c-2.3,0-3.6,1.7-3.6,3.5c0,0.7,0.3,1.4,0.6,1.8C5,9.7,5,9.8,5,9.9c-0.1,0.3-0.2,0.8-0.2,0.9
	c0,0.1-0.1,0.2-0.3,0.1c-1-0.5-1.6-1.9-1.6-3.1C2.9,5.3,4.7,3,8.2,3c2.8,0,4.9,2,4.9,4.6c0,2.8-1.7,5-4.2,5c-0.8,0-1.6-0.4-1.8-0.9
	c0,0-0.4,1.5-0.5,1.9c-0.2,0.7-0.7,1.6-1,2.1C6.4,15.9,7.2,16,8,16c4.4,0,8-3.6,8-8C16,3.6,12.4,0,8,0z"/>
</g></symbol><symbol id="svg"><symbol id="facebook" viewBox="0 0 16 16"><g><path fill="#f26324" d="M6.02293,16L6,9H3V6h3V4c0-2.6992,1.67151-4,4.07938-4c1.15339,0,2.14468,0.08587,2.43356,0.12425v2.82082
	l-1.66998,0.00076c-1.30953,0-1.56309,0.62227-1.56309,1.53541V6H13l-1,3H9.27986v7H6.02293z"/></g></symbol><symbol id="googleplus" viewBox="0 0 16 16"><g>
<path fill="#f26324" d="M8,7v2.4h4.1c-0.2,1-1.2,3-4,3c-2.4,0-4.3-2-4.3-4.4s2-4.4,4.3-4.4
	c1.4,0,2.3,0.6,2.8,1.1l1.9-1.8C11.6,1.7,10,1,8.1,1c-3.9,0-7,3.1-7,7s3.1,7,7,7c4,0,6.7-2.8,6.7-6.8c0-0.5,0-0.8-0.1-1.2H8L8,7z"/>
</g></symbol><symbol id="instagram" viewBox="0 0 16 16"><g>
<path fill="#f26324" d="M14.1,0H1.9C0.9,0,0,0.8,0,1.9v12.2c0,1,0.9,1.9,1.9,1.9h12.2c1.1,0,1.9-0.8,1.9-1.9V1.9
	C16,0.8,15.1,0,14.1,0z M8,4.9c1.7,0,3.1,1.4,3.1,3.1c0,1.7-1.4,3.1-3.1,3.1c-1.7,0-3.1-1.4-3.1-3.1C4.9,6.3,6.3,4.9,8,4.9z
	 M14,13.3c0,0.4-0.3,0.7-0.7,0.7H2.7C2.3,14,2,13.7,2,13.3V6.7h1.3C3.1,7.4,3.1,8.3,3.3,9.1c0.4,1.9,1.9,3.3,3.8,3.7
	c3.1,0.6,5.8-1.8,5.8-4.8c0-0.4-0.1-0.9-0.2-1.4H14V13.3z M14,4h-2V2h2V4z"/>
</g></symbol><symbol id="linkedin" viewBox="0 0 16 16"><g>
<path fill="#f26324" d="M15.3,0H0.7C0.3,0,0,0.3,0,0.7v14.7C0,15.7,0.3,16,0.7,16h14.7c0.4,0,0.7-0.3,0.7-0.7V0.7
	C16,0.3,15.7,0,15.3,0z M4.7,13.6H2.4V6h2.4V13.6z M3.6,5C2.8,5,2.2,4.3,2.2,3.6c0-0.8,0.6-1.4,1.4-1.4c0.8,0,1.4,0.6,1.4,1.4
	C4.9,4.3,4.3,5,3.6,5z M13.6,13.6h-2.4V9.9c0-0.9,0-2-1.2-2c-1.2,0-1.4,1-1.4,2v3.8H6.2V6h2.3v1h0c0.3-0.6,1.1-1.2,2.2-1.2
	c2.4,0,2.8,1.6,2.8,3.6V13.6z"/>
</g></symbol><symbol id="mobile" viewBox="0 0 24 24"><g>
<path fill="#a4a4a4" d="M17,0H7C4.8,0,3,1.8,3,4v16c0,2.2,1.8,4,4,4h10c2.2,0,4-1.8,4-4V4C21,1.8,19.2,0,17,0z M6,5c0-0.6,0.4-1,1-1
	h10c0.6,0,1,0.4,1,1v10H6V5z M18,19c0,0.6-0.4,1-1,1H7c-0.6,0-1-0.4-1-1v-2h12V19z"/>
</g></symbol><symbol id="pinterest" viewBox="0 0 16 16"><g>
<path fill="#f26324" d="M8,0C3.6,0,0,3.6,0,8c0,3.4,2.1,6.3,5.1,7.4c-0.1-0.6-0.1-1.6,0-2.3c0.1-0.6,0.9-4,0.9-4S5.8,8.7,5.8,8
	C5.8,6.9,6.5,6,7.3,6c0.7,0,1,0.5,1,1.1c0,0.7-0.4,1.7-0.7,2.7c-0.2,0.8,0.4,1.4,1.2,1.4c1.4,0,2.5-1.5,2.5-3.7
	c0-1.9-1.4-3.3-3.3-3.3c-2.3,0-3.6,1.7-3.6,3.5c0,0.7,0.3,1.4,0.6,1.8C5,9.7,5,9.8,5,9.9c-0.1,0.3-0.2,0.8-0.2,0.9
	c0,0.1-0.1,0.2-0.3,0.1c-1-0.5-1.6-1.9-1.6-3.1C2.9,5.3,4.7,3,8.2,3c2.8,0,4.9,2,4.9,4.6c0,2.8-1.7,5-4.2,5c-0.8,0-1.6-0.4-1.8-0.9
	c0,0-0.4,1.5-0.5,1.9c-0.2,0.7-0.7,1.6-1,2.1C6.4,15.9,7.2,16,8,16c4.4,0,8-3.6,8-8C16,3.6,12.4,0,8,0z"/>
</g></symbol><symbol id="svg"><symbol id="fb" viewBox="0 0 16 16"><g><path fill="#f26324" d="M6.02293,16L6,9H3V6h3V4c0-2.6992,1.67151-4,4.07938-4c1.15339,0,2.14468,0.08587,2.43356,0.12425v2.82082
	l-1.66998,0.00076c-1.30953,0-1.56309,0.62227-1.56309,1.53541V6H13l-1,3H9.27986v7H6.02293z"/></g></symbol><symbol id="googleplus" viewBox="0 0 16 16"><g>
<path fill="#f26324" d="M8,7v2.4h4.1c-0.2,1-1.2,3-4,3c-2.4,0-4.3-2-4.3-4.4s2-4.4,4.3-4.4
	c1.4,0,2.3,0.6,2.8,1.1l1.9-1.8C11.6,1.7,10,1,8.1,1c-3.9,0-7,3.1-7,7s3.1,7,7,7c4,0,6.7-2.8,6.7-6.8c0-0.5,0-0.8-0.1-1.2H8L8,7z"/>
</g></symbol><symbol id="instagram" viewBox="0 0 16 16"><g>
<path fill="#f26324" d="M14.1,0H1.9C0.9,0,0,0.8,0,1.9v12.2c0,1,0.9,1.9,1.9,1.9h12.2c1.1,0,1.9-0.8,1.9-1.9V1.9
	C16,0.8,15.1,0,14.1,0z M8,4.9c1.7,0,3.1,1.4,3.1,3.1c0,1.7-1.4,3.1-3.1,3.1c-1.7,0-3.1-1.4-3.1-3.1C4.9,6.3,6.3,4.9,8,4.9z
	 M14,13.3c0,0.4-0.3,0.7-0.7,0.7H2.7C2.3,14,2,13.7,2,13.3V6.7h1.3C3.1,7.4,3.1,8.3,3.3,9.1c0.4,1.9,1.9,3.3,3.8,3.7
	c3.1,0.6,5.8-1.8,5.8-4.8c0-0.4-0.1-0.9-0.2-1.4H14V13.3z M14,4h-2V2h2V4z"/>
</g></symbol><symbol id="linkedin" viewBox="0 0 16 16"><g>
<path fill="#f26324" d="M15.3,0H0.7C0.3,0,0,0.3,0,0.7v14.7C0,15.7,0.3,16,0.7,16h14.7c0.4,0,0.7-0.3,0.7-0.7V0.7
	C16,0.3,15.7,0,15.3,0z M4.7,13.6H2.4V6h2.4V13.6z M3.6,5C2.8,5,2.2,4.3,2.2,3.6c0-0.8,0.6-1.4,1.4-1.4c0.8,0,1.4,0.6,1.4,1.4
	C4.9,4.3,4.3,5,3.6,5z M13.6,13.6h-2.4V9.9c0-0.9,0-2-1.2-2c-1.2,0-1.4,1-1.4,2v3.8H6.2V6h2.3v1h0c0.3-0.6,1.1-1.2,2.2-1.2
	c2.4,0,2.8,1.6,2.8,3.6V13.6z"/>
</g></symbol><symbol id="mobile" viewBox="0 0 24 24"><g>
<path fill="#a4a4a4" d="M17,0H7C4.8,0,3,1.8,3,4v16c0,2.2,1.8,4,4,4h10c2.2,0,4-1.8,4-4V4C21,1.8,19.2,0,17,0z M6,5c0-0.6,0.4-1,1-1
	h10c0.6,0,1,0.4,1,1v10H6V5z M18,19c0,0.6-0.4,1-1,1H7c-0.6,0-1-0.4-1-1v-2h12V19z"/>
</g></symbol><symbol id="pinterest" viewBox="0 0 16 16"><g>
<path fill="#f26324" d="M8,0C3.6,0,0,3.6,0,8c0,3.4,2.1,6.3,5.1,7.4c-0.1-0.6-0.1-1.6,0-2.3c0.1-0.6,0.9-4,0.9-4S5.8,8.7,5.8,8
	C5.8,6.9,6.5,6,7.3,6c0.7,0,1,0.5,1,1.1c0,0.7-0.4,1.7-0.7,2.7c-0.2,0.8,0.4,1.4,1.2,1.4c1.4,0,2.5-1.5,2.5-3.7
	c0-1.9-1.4-3.3-3.3-3.3c-2.3,0-3.6,1.7-3.6,3.5c0,0.7,0.3,1.4,0.6,1.8C5,9.7,5,9.8,5,9.9c-0.1,0.3-0.2,0.8-0.2,0.9
	c0,0.1-0.1,0.2-0.3,0.1c-1-0.5-1.6-1.9-1.6-3.1C2.9,5.3,4.7,3,8.2,3c2.8,0,4.9,2,4.9,4.6c0,2.8-1.7,5-4.2,5c-0.8,0-1.6-0.4-1.8-0.9
	c0,0-0.4,1.5-0.5,1.9c-0.2,0.7-0.7,1.6-1,2.1C6.4,15.9,7.2,16,8,16c4.4,0,8-3.6,8-8C16,3.6,12.4,0,8,0z"/>
</g></symbol><symbol id="svg"><symbol id="fb" viewBox="0 0 16 16"><g><path fill="#f26324" d="M6.02293,16L6,9H3V6h3V4c0-2.6992,1.67151-4,4.07938-4c1.15339,0,2.14468,0.08587,2.43356,0.12425v2.82082
	l-1.66998,0.00076c-1.30953,0-1.56309,0.62227-1.56309,1.53541V6H13l-1,3H9.27986v7H6.02293z"/></g></symbol><symbol id="googleplus" viewBox="0 0 16 16"><g>
<path fill="#f26324" d="M8,7v2.4h4.1c-0.2,1-1.2,3-4,3c-2.4,0-4.3-2-4.3-4.4s2-4.4,4.3-4.4
	c1.4,0,2.3,0.6,2.8,1.1l1.9-1.8C11.6,1.7,10,1,8.1,1c-3.9,0-7,3.1-7,7s3.1,7,7,7c4,0,6.7-2.8,6.7-6.8c0-0.5,0-0.8-0.1-1.2H8L8,7z"/>
</g></symbol><symbol id="instagram" viewBox="0 0 16 16"><g>
<path fill="#f26324" d="M14.1,0H1.9C0.9,0,0,0.8,0,1.9v12.2c0,1,0.9,1.9,1.9,1.9h12.2c1.1,0,1.9-0.8,1.9-1.9V1.9
	C16,0.8,15.1,0,14.1,0z M8,4.9c1.7,0,3.1,1.4,3.1,3.1c0,1.7-1.4,3.1-3.1,3.1c-1.7,0-3.1-1.4-3.1-3.1C4.9,6.3,6.3,4.9,8,4.9z
	 M14,13.3c0,0.4-0.3,0.7-0.7,0.7H2.7C2.3,14,2,13.7,2,13.3V6.7h1.3C3.1,7.4,3.1,8.3,3.3,9.1c0.4,1.9,1.9,3.3,3.8,3.7
	c3.1,0.6,5.8-1.8,5.8-4.8c0-0.4-0.1-0.9-0.2-1.4H14V13.3z M14,4h-2V2h2V4z"/>
</g></symbol><symbol id="linkedin" viewBox="0 0 16 16"><g>
<path fill="#f26324" d="M15.3,0H0.7C0.3,0,0,0.3,0,0.7v14.7C0,15.7,0.3,16,0.7,16h14.7c0.4,0,0.7-0.3,0.7-0.7V0.7
	C16,0.3,15.7,0,15.3,0z M4.7,13.6H2.4V6h2.4V13.6z M3.6,5C2.8,5,2.2,4.3,2.2,3.6c0-0.8,0.6-1.4,1.4-1.4c0.8,0,1.4,0.6,1.4,1.4
	C4.9,4.3,4.3,5,3.6,5z M13.6,13.6h-2.4V9.9c0-0.9,0-2-1.2-2c-1.2,0-1.4,1-1.4,2v3.8H6.2V6h2.3v1h0c0.3-0.6,1.1-1.2,2.2-1.2
	c2.4,0,2.8,1.6,2.8,3.6V13.6z"/>
</g></symbol><symbol id="pinterest" viewBox="0 0 16 16"><g>
<path fill="#f26324" d="M8,0C3.6,0,0,3.6,0,8c0,3.4,2.1,6.3,5.1,7.4c-0.1-0.6-0.1-1.6,0-2.3c0.1-0.6,0.9-4,0.9-4S5.8,8.7,5.8,8
	C5.8,6.9,6.5,6,7.3,6c0.7,0,1,0.5,1,1.1c0,0.7-0.4,1.7-0.7,2.7c-0.2,0.8,0.4,1.4,1.2,1.4c1.4,0,2.5-1.5,2.5-3.7
	c0-1.9-1.4-3.3-3.3-3.3c-2.3,0-3.6,1.7-3.6,3.5c0,0.7,0.3,1.4,0.6,1.8C5,9.7,5,9.8,5,9.9c-0.1,0.3-0.2,0.8-0.2,0.9
	c0,0.1-0.1,0.2-0.3,0.1c-1-0.5-1.6-1.9-1.6-3.1C2.9,5.3,4.7,3,8.2,3c2.8,0,4.9,2,4.9,4.6c0,2.8-1.7,5-4.2,5c-0.8,0-1.6-0.4-1.8-0.9
	c0,0-0.4,1.5-0.5,1.9c-0.2,0.7-0.7,1.6-1,2.1C6.4,15.9,7.2,16,8,16c4.4,0,8-3.6,8-8C16,3.6,12.4,0,8,0z"/>
</g></symbol><symbol id="svg"><symbol id="social-16px_logo-fb-simple" viewbox="0 0 16 16"><g><path fill="#f26324" d="M6.02293,16L6,9H3V6h3V4c0-2.6992,1.67151-4,4.07938-4c1.15339,0,2.14468,0.08587,2.43356,0.12425v2.82082
	l-1.66998,0.00076c-1.30953,0-1.56309,0.62227-1.56309,1.53541V6H13l-1,3H9.27986v7H6.02293z"/></g></symbol><symbol id="social-16px_logo-google-plus" viewbox="0 0 16 16"><g>
<path fill="#f26324" d="M8,7v2.4h4.1c-0.2,1-1.2,3-4,3c-2.4,0-4.3-2-4.3-4.4s2-4.4,4.3-4.4
	c1.4,0,2.3,0.6,2.8,1.1l1.9-1.8C11.6,1.7,10,1,8.1,1c-3.9,0-7,3.1-7,7s3.1,7,7,7c4,0,6.7-2.8,6.7-6.8c0-0.5,0-0.8-0.1-1.2H8L8,7z"/>
</g></symbol><symbol id="social-16px_logo-instagram" viewbox="0 0 16 16"><g>
<path fill="#f26324" d="M14.1,0H1.9C0.9,0,0,0.8,0,1.9v12.2c0,1,0.9,1.9,1.9,1.9h12.2c1.1,0,1.9-0.8,1.9-1.9V1.9
	C16,0.8,15.1,0,14.1,0z M8,4.9c1.7,0,3.1,1.4,3.1,3.1c0,1.7-1.4,3.1-3.1,3.1c-1.7,0-3.1-1.4-3.1-3.1C4.9,6.3,6.3,4.9,8,4.9z
	 M14,13.3c0,0.4-0.3,0.7-0.7,0.7H2.7C2.3,14,2,13.7,2,13.3V6.7h1.3C3.1,7.4,3.1,8.3,3.3,9.1c0.4,1.9,1.9,3.3,3.8,3.7
	c3.1,0.6,5.8-1.8,5.8-4.8c0-0.4-0.1-0.9-0.2-1.4H14V13.3z M14,4h-2V2h2V4z"/>
</g></symbol><symbol id="social-16px_logo-linkedin" viewbox="0 0 16 16"><g>
<path fill="#f26324" d="M15.3,0H0.7C0.3,0,0,0.3,0,0.7v14.7C0,15.7,0.3,16,0.7,16h14.7c0.4,0,0.7-0.3,0.7-0.7V0.7
	C16,0.3,15.7,0,15.3,0z M4.7,13.6H2.4V6h2.4V13.6z M3.6,5C2.8,5,2.2,4.3,2.2,3.6c0-0.8,0.6-1.4,1.4-1.4c0.8,0,1.4,0.6,1.4,1.4
	C4.9,4.3,4.3,5,3.6,5z M13.6,13.6h-2.4V9.9c0-0.9,0-2-1.2-2c-1.2,0-1.4,1-1.4,2v3.8H6.2V6h2.3v1h0c0.3-0.6,1.1-1.2,2.2-1.2
	c2.4,0,2.8,1.6,2.8,3.6V13.6z"/>
</g></symbol><symbol id="social-16px_logo-pinterest" viewbox="0 0 16 16"><g>
<path fill="#f26324" d="M8,0C3.6,0,0,3.6,0,8c0,3.4,2.1,6.3,5.1,7.4c-0.1-0.6-0.1-1.6,0-2.3c0.1-0.6,0.9-4,0.9-4S5.8,8.7,5.8,8
	C5.8,6.9,6.5,6,7.3,6c0.7,0,1,0.5,1,1.1c0,0.7-0.4,1.7-0.7,2.7c-0.2,0.8,0.4,1.4,1.2,1.4c1.4,0,2.5-1.5,2.5-3.7
	c0-1.9-1.4-3.3-3.3-3.3c-2.3,0-3.6,1.7-3.6,3.5c0,0.7,0.3,1.4,0.6,1.8C5,9.7,5,9.8,5,9.9c-0.1,0.3-0.2,0.8-0.2,0.9
	c0,0.1-0.1,0.2-0.3,0.1c-1-0.5-1.6-1.9-1.6-3.1C2.9,5.3,4.7,3,8.2,3c2.8,0,4.9,2,4.9,4.6c0,2.8-1.7,5-4.2,5c-0.8,0-1.6-0.4-1.8-0.9
	c0,0-0.4,1.5-0.5,1.9c-0.2,0.7-0.7,1.6-1,2.1C6.4,15.9,7.2,16,8,16c4.4,0,8-3.6,8-8C16,3.6,12.4,0,8,0z"/>
</g></symbol><symbol id="social-16px_logo-twitter" viewbox="0 0 16 16"><g>
<path fill="#f26324" d="M16,3c-0.6,0.3-1.2,0.4-1.9,0.5c0.7-0.4,1.2-1,1.4-1.8c-0.6,0.4-1.3,0.6-2.1,0.8c-0.6-0.6-1.5-1-2.4-1
	C9.3,1.5,7.8,3,7.8,4.8c0,0.3,0,0.5,0.1,0.7C5.2,5.4,2.7,4.1,1.1,2.1c-0.3,0.5-0.4,1-0.4,1.7c0,1.1,0.6,2.1,1.5,2.7
	c-0.5,0-1-0.2-1.5-0.4c0,0,0,0,0,0c0,1.6,1.1,2.9,2.6,3.2C3,9.4,2.7,9.4,2.4,9.4c-0.2,0-0.4,0-0.6-0.1c0.4,1.3,1.6,2.3,3.1,2.3
	c-1.1,0.9-2.5,1.4-4.1,1.4c-0.3,0-0.5,0-0.8,0c1.5,0.9,3.2,1.5,5,1.5c6,0,9.3-5,9.3-9.3c0-0.1,0-0.3,0-0.4C15,4.3,15.6,3.7,16,3z"/>
</g></symbol><symbol id="social-16px_logo-vimeo" viewbox="0 0 16 16"><g>
<path fill="#f26324" d="M16,4.3c-0.1,1.6-1.2,3.7-3.3,6.4c-2.2,2.8-4,4.2-5.5,4.2c-0.9,0-1.7-0.9-2.4-2.6C4,9.9,3.4,5,2,5
	C1.9,5,1.5,5.3,0.8,5.8L0,4.8c0.8-0.7,3.5-3.4,4.7-3.5C5.9,1.2,6.7,2,7,3.8c0.3,2,0.8,6.1,1.8,6.1c0.9,0,2.5-3.4,2.6-4
	c0.1-0.9-0.3-1.9-2.3-1.1c0.8-2.6,2.3-3.8,4.5-3.8C15.3,1.1,16.1,2.2,16,4.3z"/>
</g></symbol></symbol><symbol id="twitter" viewBox="0 0 16 16"><g>
<path fill="#f26324" d="M16,3c-0.6,0.3-1.2,0.4-1.9,0.5c0.7-0.4,1.2-1,1.4-1.8c-0.6,0.4-1.3,0.6-2.1,0.8c-0.6-0.6-1.5-1-2.4-1
	C9.3,1.5,7.8,3,7.8,4.8c0,0.3,0,0.5,0.1,0.7C5.2,5.4,2.7,4.1,1.1,2.1c-0.3,0.5-0.4,1-0.4,1.7c0,1.1,0.6,2.1,1.5,2.7
	c-0.5,0-1-0.2-1.5-0.4c0,0,0,0,0,0c0,1.6,1.1,2.9,2.6,3.2C3,9.4,2.7,9.4,2.4,9.4c-0.2,0-0.4,0-0.6-0.1c0.4,1.3,1.6,2.3,3.1,2.3
	c-1.1,0.9-2.5,1.4-4.1,1.4c-0.3,0-0.5,0-0.8,0c1.5,0.9,3.2,1.5,5,1.5c6,0,9.3-5,9.3-9.3c0-0.1,0-0.3,0-0.4C15,4.3,15.6,3.7,16,3z"/>
</g></symbol><symbol id="vimeo" viewBox="0 0 16 16"><g>
<path fill="#f26324" d="M16,4.3c-0.1,1.6-1.2,3.7-3.3,6.4c-2.2,2.8-4,4.2-5.5,4.2c-0.9,0-1.7-0.9-2.4-2.6C4,9.9,3.4,5,2,5
	C1.9,5,1.5,5.3,0.8,5.8L0,4.8c0.8-0.7,3.5-3.4,4.7-3.5C5.9,1.2,6.7,2,7,3.8c0.3,2,0.8,6.1,1.8,6.1c0.9,0,2.5-3.4,2.6-4
	c0.1-0.9-0.3-1.9-2.3-1.1c0.8-2.6,2.3-3.8,4.5-3.8C15.3,1.1,16.1,2.2,16,4.3z"/>
</g></symbol></symbol><symbol id="twitter" viewBox="0 0 16 16"><g>
<path fill="#f26324" d="M16,3c-0.6,0.3-1.2,0.4-1.9,0.5c0.7-0.4,1.2-1,1.4-1.8c-0.6,0.4-1.3,0.6-2.1,0.8c-0.6-0.6-1.5-1-2.4-1
	C9.3,1.5,7.8,3,7.8,4.8c0,0.3,0,0.5,0.1,0.7C5.2,5.4,2.7,4.1,1.1,2.1c-0.3,0.5-0.4,1-0.4,1.7c0,1.1,0.6,2.1,1.5,2.7
	c-0.5,0-1-0.2-1.5-0.4c0,0,0,0,0,0c0,1.6,1.1,2.9,2.6,3.2C3,9.4,2.7,9.4,2.4,9.4c-0.2,0-0.4,0-0.6-0.1c0.4,1.3,1.6,2.3,3.1,2.3
	c-1.1,0.9-2.5,1.4-4.1,1.4c-0.3,0-0.5,0-0.8,0c1.5,0.9,3.2,1.5,5,1.5c6,0,9.3-5,9.3-9.3c0-0.1,0-0.3,0-0.4C15,4.3,15.6,3.7,16,3z"/>
</g></symbol><symbol id="vimeo" viewBox="0 0 16 16"><g>
<path fill="#f26324" d="M16,4.3c-0.1,1.6-1.2,3.7-3.3,6.4c-2.2,2.8-4,4.2-5.5,4.2c-0.9,0-1.7-0.9-2.4-2.6C4,9.9,3.4,5,2,5
	C1.9,5,1.5,5.3,0.8,5.8L0,4.8c0.8-0.7,3.5-3.4,4.7-3.5C5.9,1.2,6.7,2,7,3.8c0.3,2,0.8,6.1,1.8,6.1c0.9,0,2.5-3.4,2.6-4
	c0.1-0.9-0.3-1.9-2.3-1.1c0.8-2.6,2.3-3.8,4.5-3.8C15.3,1.1,16.1,2.2,16,4.3z"/>
</g></symbol></symbol><symbol id="twitter" viewBox="0 0 16 16"><g>
<path fill="#f26324" d="M16,3c-0.6,0.3-1.2,0.4-1.9,0.5c0.7-0.4,1.2-1,1.4-1.8c-0.6,0.4-1.3,0.6-2.1,0.8c-0.6-0.6-1.5-1-2.4-1
	C9.3,1.5,7.8,3,7.8,4.8c0,0.3,0,0.5,0.1,0.7C5.2,5.4,2.7,4.1,1.1,2.1c-0.3,0.5-0.4,1-0.4,1.7c0,1.1,0.6,2.1,1.5,2.7
	c-0.5,0-1-0.2-1.5-0.4c0,0,0,0,0,0c0,1.6,1.1,2.9,2.6,3.2C3,9.4,2.7,9.4,2.4,9.4c-0.2,0-0.4,0-0.6-0.1c0.4,1.3,1.6,2.3,3.1,2.3
	c-1.1,0.9-2.5,1.4-4.1,1.4c-0.3,0-0.5,0-0.8,0c1.5,0.9,3.2,1.5,5,1.5c6,0,9.3-5,9.3-9.3c0-0.1,0-0.3,0-0.4C15,4.3,15.6,3.7,16,3z"/>
</g></symbol><symbol id="vimeo" viewBox="0 0 16 16"><g>
<path fill="#f26324" d="M16,4.3c-0.1,1.6-1.2,3.7-3.3,6.4c-2.2,2.8-4,4.2-5.5,4.2c-0.9,0-1.7-0.9-2.4-2.6C4,9.9,3.4,5,2,5
	C1.9,5,1.5,5.3,0.8,5.8L0,4.8c0.8-0.7,3.5-3.4,4.7-3.5C5.9,1.2,6.7,2,7,3.8c0.3,2,0.8,6.1,1.8,6.1c0.9,0,2.5-3.4,2.6-4
	c0.1-0.9-0.3-1.9-2.3-1.1c0.8-2.6,2.3-3.8,4.5-3.8C15.3,1.1,16.1,2.2,16,4.3z"/>
</g></symbol></symbol><symbol id="twitter" viewBox="0 0 16 16"><g>
<path fill="#f26324" d="M16,3c-0.6,0.3-1.2,0.4-1.9,0.5c0.7-0.4,1.2-1,1.4-1.8c-0.6,0.4-1.3,0.6-2.1,0.8c-0.6-0.6-1.5-1-2.4-1
	C9.3,1.5,7.8,3,7.8,4.8c0,0.3,0,0.5,0.1,0.7C5.2,5.4,2.7,4.1,1.1,2.1c-0.3,0.5-0.4,1-0.4,1.7c0,1.1,0.6,2.1,1.5,2.7
	c-0.5,0-1-0.2-1.5-0.4c0,0,0,0,0,0c0,1.6,1.1,2.9,2.6,3.2C3,9.4,2.7,9.4,2.4,9.4c-0.2,0-0.4,0-0.6-0.1c0.4,1.3,1.6,2.3,3.1,2.3
	c-1.1,0.9-2.5,1.4-4.1,1.4c-0.3,0-0.5,0-0.8,0c1.5,0.9,3.2,1.5,5,1.5c6,0,9.3-5,9.3-9.3c0-0.1,0-0.3,0-0.4C15,4.3,15.6,3.7,16,3z"/>
</g></symbol><symbol id="vimeo" viewBox="0 0 16 16"><g>
<path fill="#f26324" d="M16,4.3c-0.1,1.6-1.2,3.7-3.3,6.4c-2.2,2.8-4,4.2-5.5,4.2c-0.9,0-1.7-0.9-2.4-2.6C4,9.9,3.4,5,2,5
	C1.9,5,1.5,5.3,0.8,5.8L0,4.8c0.8-0.7,3.5-3.4,4.7-3.5C5.9,1.2,6.7,2,7,3.8c0.3,2,0.8,6.1,1.8,6.1c0.9,0,2.5-3.4,2.6-4
	c0.1-0.9-0.3-1.9-2.3-1.1c0.8-2.6,2.3-3.8,4.5-3.8C15.3,1.1,16.1,2.2,16,4.3z"/>
</g></symbol></symbol><symbol id="twitter" viewBox="0 0 16 16"><g>
<path fill="#f26324" d="M16,3c-0.6,0.3-1.2,0.4-1.9,0.5c0.7-0.4,1.2-1,1.4-1.8c-0.6,0.4-1.3,0.6-2.1,0.8c-0.6-0.6-1.5-1-2.4-1
	C9.3,1.5,7.8,3,7.8,4.8c0,0.3,0,0.5,0.1,0.7C5.2,5.4,2.7,4.1,1.1,2.1c-0.3,0.5-0.4,1-0.4,1.7c0,1.1,0.6,2.1,1.5,2.7
	c-0.5,0-1-0.2-1.5-0.4c0,0,0,0,0,0c0,1.6,1.1,2.9,2.6,3.2C3,9.4,2.7,9.4,2.4,9.4c-0.2,0-0.4,0-0.6-0.1c0.4,1.3,1.6,2.3,3.1,2.3
	c-1.1,0.9-2.5,1.4-4.1,1.4c-0.3,0-0.5,0-0.8,0c1.5,0.9,3.2,1.5,5,1.5c6,0,9.3-5,9.3-9.3c0-0.1,0-0.3,0-0.4C15,4.3,15.6,3.7,16,3z"/>
</g></symbol><symbol id="vimeo" viewBox="0 0 16 16"><g>
<path fill="#f26324" d="M16,4.3c-0.1,1.6-1.2,3.7-3.3,6.4c-2.2,2.8-4,4.2-5.5,4.2c-0.9,0-1.7-0.9-2.4-2.6C4,9.9,3.4,5,2,5
	C1.9,5,1.5,5.3,0.8,5.8L0,4.8c0.8-0.7,3.5-3.4,4.7-3.5C5.9,1.2,6.7,2,7,3.8c0.3,2,0.8,6.1,1.8,6.1c0.9,0,2.5-3.4,2.6-4
	c0.1-0.9-0.3-1.9-2.3-1.1c0.8-2.6,2.3-3.8,4.5-3.8C15.3,1.1,16.1,2.2,16,4.3z"/>
</g></symbol></symbol><symbol id="twitter" viewBox="0 0 16 16"><g>
<path fill="#f26324" d="M16,3c-0.6,0.3-1.2,0.4-1.9,0.5c0.7-0.4,1.2-1,1.4-1.8c-0.6,0.4-1.3,0.6-2.1,0.8c-0.6-0.6-1.5-1-2.4-1
	C9.3,1.5,7.8,3,7.8,4.8c0,0.3,0,0.5,0.1,0.7C5.2,5.4,2.7,4.1,1.1,2.1c-0.3,0.5-0.4,1-0.4,1.7c0,1.1,0.6,2.1,1.5,2.7
	c-0.5,0-1-0.2-1.5-0.4c0,0,0,0,0,0c0,1.6,1.1,2.9,2.6,3.2C3,9.4,2.7,9.4,2.4,9.4c-0.2,0-0.4,0-0.6-0.1c0.4,1.3,1.6,2.3,3.1,2.3
	c-1.1,0.9-2.5,1.4-4.1,1.4c-0.3,0-0.5,0-0.8,0c1.5,0.9,3.2,1.5,5,1.5c6,0,9.3-5,9.3-9.3c0-0.1,0-0.3,0-0.4C15,4.3,15.6,3.7,16,3z"/>
</g></symbol><symbol id="vimeo" viewBox="0 0 16 16"><g>
<path fill="#f26324" d="M16,4.3c-0.1,1.6-1.2,3.7-3.3,6.4c-2.2,2.8-4,4.2-5.5,4.2c-0.9,0-1.7-0.9-2.4-2.6C4,9.9,3.4,5,2,5
	C1.9,5,1.5,5.3,0.8,5.8L0,4.8c0.8-0.7,3.5-3.4,4.7-3.5C5.9,1.2,6.7,2,7,3.8c0.3,2,0.8,6.1,1.8,6.1c0.9,0,2.5-3.4,2.6-4
	c0.1-0.9-0.3-1.9-2.3-1.1c0.8-2.6,2.3-3.8,4.5-3.8C15.3,1.1,16.1,2.2,16,4.3z"/>
</g></symbol></symbol><symbol id="twitter" viewBox="0 0 16 16"><g>
<path fill="#f26324" d="M16,3c-0.6,0.3-1.2,0.4-1.9,0.5c0.7-0.4,1.2-1,1.4-1.8c-0.6,0.4-1.3,0.6-2.1,0.8c-0.6-0.6-1.5-1-2.4-1
	C9.3,1.5,7.8,3,7.8,4.8c0,0.3,0,0.5,0.1,0.7C5.2,5.4,2.7,4.1,1.1,2.1c-0.3,0.5-0.4,1-0.4,1.7c0,1.1,0.6,2.1,1.5,2.7
	c-0.5,0-1-0.2-1.5-0.4c0,0,0,0,0,0c0,1.6,1.1,2.9,2.6,3.2C3,9.4,2.7,9.4,2.4,9.4c-0.2,0-0.4,0-0.6-0.1c0.4,1.3,1.6,2.3,3.1,2.3
	c-1.1,0.9-2.5,1.4-4.1,1.4c-0.3,0-0.5,0-0.8,0c1.5,0.9,3.2,1.5,5,1.5c6,0,9.3-5,9.3-9.3c0-0.1,0-0.3,0-0.4C15,4.3,15.6,3.7,16,3z"/>
</g></symbol><symbol id="vimeo" viewBox="0 0 16 16"><g>
<path fill="#f26324" d="M16,4.3c-0.1,1.6-1.2,3.7-3.3,6.4c-2.2,2.8-4,4.2-5.5,4.2c-0.9,0-1.7-0.9-2.4-2.6C4,9.9,3.4,5,2,5
	C1.9,5,1.5,5.3,0.8,5.8L0,4.8c0.8-0.7,3.5-3.4,4.7-3.5C5.9,1.2,6.7,2,7,3.8c0.3,2,0.8,6.1,1.8,6.1c0.9,0,2.5-3.4,2.6-4
	c0.1-0.9-0.3-1.9-2.3-1.1c0.8-2.6,2.3-3.8,4.5-3.8C15.3,1.1,16.1,2.2,16,4.3z"/>
</g></symbol></symbol><symbol id="twitter" viewBox="0 0 16 16"><g>
<path fill="#f26324" d="M16,3c-0.6,0.3-1.2,0.4-1.9,0.5c0.7-0.4,1.2-1,1.4-1.8c-0.6,0.4-1.3,0.6-2.1,0.8c-0.6-0.6-1.5-1-2.4-1
	C9.3,1.5,7.8,3,7.8,4.8c0,0.3,0,0.5,0.1,0.7C5.2,5.4,2.7,4.1,1.1,2.1c-0.3,0.5-0.4,1-0.4,1.7c0,1.1,0.6,2.1,1.5,2.7
	c-0.5,0-1-0.2-1.5-0.4c0,0,0,0,0,0c0,1.6,1.1,2.9,2.6,3.2C3,9.4,2.7,9.4,2.4,9.4c-0.2,0-0.4,0-0.6-0.1c0.4,1.3,1.6,2.3,3.1,2.3
	c-1.1,0.9-2.5,1.4-4.1,1.4c-0.3,0-0.5,0-0.8,0c1.5,0.9,3.2,1.5,5,1.5c6,0,9.3-5,9.3-9.3c0-0.1,0-0.3,0-0.4C15,4.3,15.6,3.7,16,3z"/>
</g></symbol><symbol id="vimeo" viewBox="0 0 16 16"><g>
<path fill="#f26324" d="M16,4.3c-0.1,1.6-1.2,3.7-3.3,6.4c-2.2,2.8-4,4.2-5.5,4.2c-0.9,0-1.7-0.9-2.4-2.6C4,9.9,3.4,5,2,5
	C1.9,5,1.5,5.3,0.8,5.8L0,4.8c0.8-0.7,3.5-3.4,4.7-3.5C5.9,1.2,6.7,2,7,3.8c0.3,2,0.8,6.1,1.8,6.1c0.9,0,2.5-3.4,2.6-4
	c0.1-0.9-0.3-1.9-2.3-1.1c0.8-2.6,2.3-3.8,4.5-3.8C15.3,1.1,16.1,2.2,16,4.3z"/>
</g></symbol></symbol><symbol id="twitter" viewBox="0 0 16 16"><g>
<path fill="#f26324" d="M16,3c-0.6,0.3-1.2,0.4-1.9,0.5c0.7-0.4,1.2-1,1.4-1.8c-0.6,0.4-1.3,0.6-2.1,0.8c-0.6-0.6-1.5-1-2.4-1
	C9.3,1.5,7.8,3,7.8,4.8c0,0.3,0,0.5,0.1,0.7C5.2,5.4,2.7,4.1,1.1,2.1c-0.3,0.5-0.4,1-0.4,1.7c0,1.1,0.6,2.1,1.5,2.7
	c-0.5,0-1-0.2-1.5-0.4c0,0,0,0,0,0c0,1.6,1.1,2.9,2.6,3.2C3,9.4,2.7,9.4,2.4,9.4c-0.2,0-0.4,0-0.6-0.1c0.4,1.3,1.6,2.3,3.1,2.3
	c-1.1,0.9-2.5,1.4-4.1,1.4c-0.3,0-0.5,0-0.8,0c1.5,0.9,3.2,1.5,5,1.5c6,0,9.3-5,9.3-9.3c0-0.1,0-0.3,0-0.4C15,4.3,15.6,3.7,16,3z"/>
</g></symbol><symbol id="vimeo" viewBox="0 0 16 16"><g>
<path fill="#f26324" d="M16,4.3c-0.1,1.6-1.2,3.7-3.3,6.4c-2.2,2.8-4,4.2-5.5,4.2c-0.9,0-1.7-0.9-2.4-2.6C4,9.9,3.4,5,2,5
	C1.9,5,1.5,5.3,0.8,5.8L0,4.8c0.8-0.7,3.5-3.4,4.7-3.5C5.9,1.2,6.7,2,7,3.8c0.3,2,0.8,6.1,1.8,6.1c0.9,0,2.5-3.4,2.6-4
	c0.1-0.9-0.3-1.9-2.3-1.1c0.8-2.6,2.3-3.8,4.5-3.8C15.3,1.1,16.1,2.2,16,4.3z"/>
</g></symbol></symbol><symbol id="twitter" viewBox="0 0 16 16"><g>
<path fill="#f26324" d="M16,3c-0.6,0.3-1.2,0.4-1.9,0.5c0.7-0.4,1.2-1,1.4-1.8c-0.6,0.4-1.3,0.6-2.1,0.8c-0.6-0.6-1.5-1-2.4-1
	C9.3,1.5,7.8,3,7.8,4.8c0,0.3,0,0.5,0.1,0.7C5.2,5.4,2.7,4.1,1.1,2.1c-0.3,0.5-0.4,1-0.4,1.7c0,1.1,0.6,2.1,1.5,2.7
	c-0.5,0-1-0.2-1.5-0.4c0,0,0,0,0,0c0,1.6,1.1,2.9,2.6,3.2C3,9.4,2.7,9.4,2.4,9.4c-0.2,0-0.4,0-0.6-0.1c0.4,1.3,1.6,2.3,3.1,2.3
	c-1.1,0.9-2.5,1.4-4.1,1.4c-0.3,0-0.5,0-0.8,0c1.5,0.9,3.2,1.5,5,1.5c6,0,9.3-5,9.3-9.3c0-0.1,0-0.3,0-0.4C15,4.3,15.6,3.7,16,3z"/>
</g></symbol><symbol id="vimeo" viewBox="0 0 16 16"><g>
<path fill="#f26324" d="M16,4.3c-0.1,1.6-1.2,3.7-3.3,6.4c-2.2,2.8-4,4.2-5.5,4.2c-0.9,0-1.7-0.9-2.4-2.6C4,9.9,3.4,5,2,5
	C1.9,5,1.5,5.3,0.8,5.8L0,4.8c0.8-0.7,3.5-3.4,4.7-3.5C5.9,1.2,6.7,2,7,3.8c0.3,2,0.8,6.1,1.8,6.1c0.9,0,2.5-3.4,2.6-4
	c0.1-0.9-0.3-1.9-2.3-1.1c0.8-2.6,2.3-3.8,4.5-3.8C15.3,1.1,16.1,2.2,16,4.3z"/>
</g></symbol></symbol><symbol id="twitter" viewBox="0 0 16 16"><g>
<path fill="#f26324" d="M16,3c-0.6,0.3-1.2,0.4-1.9,0.5c0.7-0.4,1.2-1,1.4-1.8c-0.6,0.4-1.3,0.6-2.1,0.8c-0.6-0.6-1.5-1-2.4-1
	C9.3,1.5,7.8,3,7.8,4.8c0,0.3,0,0.5,0.1,0.7C5.2,5.4,2.7,4.1,1.1,2.1c-0.3,0.5-0.4,1-0.4,1.7c0,1.1,0.6,2.1,1.5,2.7
	c-0.5,0-1-0.2-1.5-0.4c0,0,0,0,0,0c0,1.6,1.1,2.9,2.6,3.2C3,9.4,2.7,9.4,2.4,9.4c-0.2,0-0.4,0-0.6-0.1c0.4,1.3,1.6,2.3,3.1,2.3
	c-1.1,0.9-2.5,1.4-4.1,1.4c-0.3,0-0.5,0-0.8,0c1.5,0.9,3.2,1.5,5,1.5c6,0,9.3-5,9.3-9.3c0-0.1,0-0.3,0-0.4C15,4.3,15.6,3.7,16,3z"/>
</g></symbol><symbol id="vimeo" viewBox="0 0 16 16"><g>
<path fill="#f26324" d="M16,4.3c-0.1,1.6-1.2,3.7-3.3,6.4c-2.2,2.8-4,4.2-5.5,4.2c-0.9,0-1.7-0.9-2.4-2.6C4,9.9,3.4,5,2,5
	C1.9,5,1.5,5.3,0.8,5.8L0,4.8c0.8-0.7,3.5-3.4,4.7-3.5C5.9,1.2,6.7,2,7,3.8c0.3,2,0.8,6.1,1.8,6.1c0.9,0,2.5-3.4,2.6-4
	c0.1-0.9-0.3-1.9-2.3-1.1c0.8-2.6,2.3-3.8,4.5-3.8C15.3,1.1,16.1,2.2,16,4.3z"/>
</g></symbol></symbol><symbol id="twitter" viewBox="0 0 16 16"><g>
<path fill="#f26324" d="M16,3c-0.6,0.3-1.2,0.4-1.9,0.5c0.7-0.4,1.2-1,1.4-1.8c-0.6,0.4-1.3,0.6-2.1,0.8c-0.6-0.6-1.5-1-2.4-1
	C9.3,1.5,7.8,3,7.8,4.8c0,0.3,0,0.5,0.1,0.7C5.2,5.4,2.7,4.1,1.1,2.1c-0.3,0.5-0.4,1-0.4,1.7c0,1.1,0.6,2.1,1.5,2.7
	c-0.5,0-1-0.2-1.5-0.4c0,0,0,0,0,0c0,1.6,1.1,2.9,2.6,3.2C3,9.4,2.7,9.4,2.4,9.4c-0.2,0-0.4,0-0.6-0.1c0.4,1.3,1.6,2.3,3.1,2.3
	c-1.1,0.9-2.5,1.4-4.1,1.4c-0.3,0-0.5,0-0.8,0c1.5,0.9,3.2,1.5,5,1.5c6,0,9.3-5,9.3-9.3c0-0.1,0-0.3,0-0.4C15,4.3,15.6,3.7,16,3z"/>
</g></symbol><symbol id="vimeo" viewBox="0 0 16 16"><g>
<path fill="#f26324" d="M16,4.3c-0.1,1.6-1.2,3.7-3.3,6.4c-2.2,2.8-4,4.2-5.5,4.2c-0.9,0-1.7-0.9-2.4-2.6C4,9.9,3.4,5,2,5
	C1.9,5,1.5,5.3,0.8,5.8L0,4.8c0.8-0.7,3.5-3.4,4.7-3.5C5.9,1.2,6.7,2,7,3.8c0.3,2,0.8,6.1,1.8,6.1c0.9,0,2.5-3.4,2.6-4
	c0.1-0.9-0.3-1.9-2.3-1.1c0.8-2.6,2.3-3.8,4.5-3.8C15.3,1.1,16.1,2.2,16,4.3z"/>
</g></symbol></symbol><symbol id="twitter" viewBox="0 0 16 16"><g>
<path fill="#f26324" d="M16,3c-0.6,0.3-1.2,0.4-1.9,0.5c0.7-0.4,1.2-1,1.4-1.8c-0.6,0.4-1.3,0.6-2.1,0.8c-0.6-0.6-1.5-1-2.4-1
	C9.3,1.5,7.8,3,7.8,4.8c0,0.3,0,0.5,0.1,0.7C5.2,5.4,2.7,4.1,1.1,2.1c-0.3,0.5-0.4,1-0.4,1.7c0,1.1,0.6,2.1,1.5,2.7
	c-0.5,0-1-0.2-1.5-0.4c0,0,0,0,0,0c0,1.6,1.1,2.9,2.6,3.2C3,9.4,2.7,9.4,2.4,9.4c-0.2,0-0.4,0-0.6-0.1c0.4,1.3,1.6,2.3,3.1,2.3
	c-1.1,0.9-2.5,1.4-4.1,1.4c-0.3,0-0.5,0-0.8,0c1.5,0.9,3.2,1.5,5,1.5c6,0,9.3-5,9.3-9.3c0-0.1,0-0.3,0-0.4C15,4.3,15.6,3.7,16,3z"/>
</g></symbol><symbol id="vimeo" viewBox="0 0 16 16"><g>
<path fill="#f26324" d="M16,4.3c-0.1,1.6-1.2,3.7-3.3,6.4c-2.2,2.8-4,4.2-5.5,4.2c-0.9,0-1.7-0.9-2.4-2.6C4,9.9,3.4,5,2,5
	C1.9,5,1.5,5.3,0.8,5.8L0,4.8c0.8-0.7,3.5-3.4,4.7-3.5C5.9,1.2,6.7,2,7,3.8c0.3,2,0.8,6.1,1.8,6.1c0.9,0,2.5-3.4,2.6-4
	c0.1-0.9-0.3-1.9-2.3-1.1c0.8-2.6,2.3-3.8,4.5-3.8C15.3,1.1,16.1,2.2,16,4.3z"/>
</g></symbol></symbol><symbol id="twitter" viewBox="0 0 16 16"><g>
<path fill="#f26324" d="M16,3c-0.6,0.3-1.2,0.4-1.9,0.5c0.7-0.4,1.2-1,1.4-1.8c-0.6,0.4-1.3,0.6-2.1,0.8c-0.6-0.6-1.5-1-2.4-1
	C9.3,1.5,7.8,3,7.8,4.8c0,0.3,0,0.5,0.1,0.7C5.2,5.4,2.7,4.1,1.1,2.1c-0.3,0.5-0.4,1-0.4,1.7c0,1.1,0.6,2.1,1.5,2.7
	c-0.5,0-1-0.2-1.5-0.4c0,0,0,0,0,0c0,1.6,1.1,2.9,2.6,3.2C3,9.4,2.7,9.4,2.4,9.4c-0.2,0-0.4,0-0.6-0.1c0.4,1.3,1.6,2.3,3.1,2.3
	c-1.1,0.9-2.5,1.4-4.1,1.4c-0.3,0-0.5,0-0.8,0c1.5,0.9,3.2,1.5,5,1.5c6,0,9.3-5,9.3-9.3c0-0.1,0-0.3,0-0.4C15,4.3,15.6,3.7,16,3z"/>
</g></symbol><symbol id="vimeo" viewBox="0 0 16 16"><g>
<path fill="#f26324" d="M16,4.3c-0.1,1.6-1.2,3.7-3.3,6.4c-2.2,2.8-4,4.2-5.5,4.2c-0.9,0-1.7-0.9-2.4-2.6C4,9.9,3.4,5,2,5
	C1.9,5,1.5,5.3,0.8,5.8L0,4.8c0.8-0.7,3.5-3.4,4.7-3.5C5.9,1.2,6.7,2,7,3.8c0.3,2,0.8,6.1,1.8,6.1c0.9,0,2.5-3.4,2.6-4
	c0.1-0.9-0.3-1.9-2.3-1.1c0.8-2.6,2.3-3.8,4.5-3.8C15.3,1.1,16.1,2.2,16,4.3z"/>
</g></symbol></symbol><symbol id="twitter" viewBox="0 0 16 16"><g>
<path fill="#f26324" d="M16,3c-0.6,0.3-1.2,0.4-1.9,0.5c0.7-0.4,1.2-1,1.4-1.8c-0.6,0.4-1.3,0.6-2.1,0.8c-0.6-0.6-1.5-1-2.4-1
	C9.3,1.5,7.8,3,7.8,4.8c0,0.3,0,0.5,0.1,0.7C5.2,5.4,2.7,4.1,1.1,2.1c-0.3,0.5-0.4,1-0.4,1.7c0,1.1,0.6,2.1,1.5,2.7
	c-0.5,0-1-0.2-1.5-0.4c0,0,0,0,0,0c0,1.6,1.1,2.9,2.6,3.2C3,9.4,2.7,9.4,2.4,9.4c-0.2,0-0.4,0-0.6-0.1c0.4,1.3,1.6,2.3,3.1,2.3
	c-1.1,0.9-2.5,1.4-4.1,1.4c-0.3,0-0.5,0-0.8,0c1.5,0.9,3.2,1.5,5,1.5c6,0,9.3-5,9.3-9.3c0-0.1,0-0.3,0-0.4C15,4.3,15.6,3.7,16,3z"/>
</g></symbol><symbol id="vimeo" viewBox="0 0 16 16"><g>
<path fill="#f26324" d="M16,4.3c-0.1,1.6-1.2,3.7-3.3,6.4c-2.2,2.8-4,4.2-5.5,4.2c-0.9,0-1.7-0.9-2.4-2.6C4,9.9,3.4,5,2,5
	C1.9,5,1.5,5.3,0.8,5.8L0,4.8c0.8-0.7,3.5-3.4,4.7-3.5C5.9,1.2,6.7,2,7,3.8c0.3,2,0.8,6.1,1.8,6.1c0.9,0,2.5-3.4,2.6-4
	c0.1-0.9-0.3-1.9-2.3-1.1c0.8-2.6,2.3-3.8,4.5-3.8C15.3,1.1,16.1,2.2,16,4.3z"/>
</g></symbol></svg>